#N canvas 15 68 344 417 10;
#X obj 116 74 loadbang;
#X obj 172 77 bng 15 250 50 0 empty empty empty 17 7 0 10 -262144 -1
-1;
#X obj 116 146 f;
#X floatatom 116 185 5 0 0 0 - - -;
#X obj 99 227 -;
#X floatatom 99 264 5 0 0 0 - - -;
#X obj 59 87 t f f;
#X floatatom 67 125 5 0 0 0 - - -;
#X obj 116 104 metro 30;
#X obj 106 331 t b;
#X obj 108 304 moses 0.3;
#X obj 38 13 inlet;
#X obj 223 20 inlet;
#X obj 102 375 outlet;
#X obj 144 12 inlet;
#X obj 140 39 t b f;
#X connect 0 0 8 0;
#X connect 1 0 8 0;
#X connect 2 0 3 0;
#X connect 2 0 4 1;
#X connect 4 0 5 0;
#X connect 5 0 10 0;
#X connect 6 0 2 1;
#X connect 6 1 7 0;
#X connect 6 1 4 0;
#X connect 8 0 2 0;
#X connect 9 0 13 0;
#X connect 10 1 9 0;
#X connect 11 0 6 0;
#X connect 12 0 10 1;
#X connect 14 0 15 0;
#X connect 15 0 1 0;
#X connect 15 1 8 1;
