#N canvas 0 22 1280 700 10;
#X obj 98 77 bng 15 250 50 0 empty empty empty 17 7 0 10 -262144 -1
-1;
#X obj 98 264 bng 15 250 50 0 empty empty empty 17 7 0 10 -262144 -1
-1;
#X obj 98 353 s trigger_message;
#X obj 98 225 s trigger_message;
#X text 100 37 LEFT;
#X text 131 76 normal roll;
#X text 131 263 reverse;
#X obj 98 394 bng 15 250 50 0 empty empty empty 17 7 0 10 -262144 -1
-1;
#X obj 98 493 s trigger_message;
#X obj 98 323 pack 215 100 210 100;
#X obj 98 183 pack 210 0 200 255;
#X obj 219 183 pack 215 100 240 1;
#X obj 98 734 s trigger_message;
#X obj 98 651 bng 15 250 50 0 empty empty empty 17 7 0 10 -262144 -1
-1;
#X text 126 649 bang;
#X obj 125 675 delay 20;
#X obj 98 699 pack 200 255 0 0;
#X text 131 393 enter scratch mode;
#X obj 98 524 bng 15 250 50 0 empty empty empty 17 7 0 10 -262144 -1
-1;
#X obj 98 613 s trigger_message;
#X text 131 523 leave scratch mode;
#X obj 98 575 pack 230 1 0 0 0 0 0 0;
#X obj 98 454 pack 230 1 255 255 255 255 255 255;
#X obj 125 422 delay 20;
#X obj 125 550 delay 20;
#X obj 125 293 delay 20;
#X obj 219 121 delay 20;
#X obj 718 77 bng 15 250 50 0 empty empty empty 17 7 0 10 -262144 -1
-1;
#X obj 718 264 bng 15 250 50 0 empty empty empty 17 7 0 10 -262144
-1 -1;
#X obj 718 353 s trigger_message;
#X obj 718 225 s trigger_message;
#X text 751 76 normal roll;
#X text 751 263 reverse;
#X obj 718 394 bng 15 250 50 0 empty empty empty 17 7 0 10 -262144
-1 -1;
#X obj 718 493 s trigger_message;
#X obj 718 734 s trigger_message;
#X obj 718 651 bng 15 250 50 0 empty empty empty 17 7 0 10 -262144
-1 -1;
#X text 746 649 bang;
#X obj 745 675 delay 20;
#X text 751 393 enter scratch mode;
#X obj 718 524 bng 15 250 50 0 empty empty empty 17 7 0 10 -262144
-1 -1;
#X obj 718 613 s trigger_message;
#X text 751 523 leave scratch mode;
#X obj 745 422 delay 20;
#X obj 745 550 delay 20;
#X obj 745 293 delay 20;
#X obj 839 121 delay 20;
#X text 720 37 RIGHT;
#X obj 718 183 pack 211 0 200 255;
#X obj 839 183 pack 216 100 240 1;
#X obj 718 323 pack 216 100 210 100;
#X obj 718 454 pack 231 1 255 255 255 255 255 255;
#X obj 718 699 pack 201 255 0 0;
#X obj 358 77 bng 15 250 50 0 empty empty empty 17 7 0 10 -262144 -1
-1;
#X obj 358 225 s trigger_message;
#X obj 479 121 delay 20;
#X text 391 76 pause;
#X obj 358 183 pack 210 0 0 0;
#X obj 479 183 pack 215 100 0 0;
#X obj 978 77 bng 15 250 50 0 empty empty empty 17 7 0 10 -262144 -1
-1;
#X obj 978 225 s trigger_message;
#X obj 1099 121 delay 20;
#X text 1011 76 pause;
#X obj 978 183 pack 211 0 0 0;
#X obj 1099 183 pack 216 100 0 0;
#X obj 718 575 pack 231 1 0 0 0 0 0 0;
#X obj 358 264 bng 15 250 50 0 empty empty empty 17 7 0 10 -262144
-1 -1;
#X obj 358 353 s trigger_message;
#X obj 385 293 delay 20;
#X obj 358 323 pack 220 0 0 0;
#X text 391 263 no colors when moving;
#X obj 978 264 bng 15 250 50 0 empty empty empty 17 7 0 10 -262144
-1 -1;
#X obj 978 353 s trigger_message;
#X obj 1005 293 delay 20;
#X text 1011 263 no colors when moving;
#X obj 978 322 pack 221 0 0 0;
#X obj 358 394 bng 15 250 50 0 empty empty empty 17 7 0 10 -262144
-1 -1;
#X obj 358 483 s trigger_message;
#X obj 385 423 delay 20;
#X text 391 393 moving mode;
#X obj 358 452 pack 220 0 160 20;
#X obj 978 394 bng 15 250 50 0 empty empty empty 17 7 0 10 -262144
-1 -1;
#X obj 978 483 s trigger_message;
#X obj 1005 423 delay 20;
#X text 1011 393 moving mode;
#X obj 978 452 pack 221 0 160 20;
#X obj 358 524 bng 15 250 50 0 empty empty empty 17 7 0 10 -262144
-1 -1;
#X obj 358 672 s trigger_message;
#X text 360 484 LEFT;
#X obj 479 568 delay 20;
#X text 390 523 scratch pause;
#X obj 358 630 pack 210 255 0 0;
#X obj 479 630 pack 215 100 255 1;
#X obj 978 524 bng 15 250 50 0 empty empty empty 17 7 0 10 -262144
-1 -1;
#X obj 978 672 s trigger_message;
#X obj 1099 568 delay 20;
#X text 1010 523 scratch pause;
#X obj 978 630 pack 211 255 0 0;
#X obj 1099 630 pack 216 100 255 1;
#X connect 0 0 10 0;
#X connect 0 0 11 0;
#X connect 0 0 26 0;
#X connect 1 0 9 0;
#X connect 1 0 25 0;
#X connect 7 0 22 0;
#X connect 7 0 23 0;
#X connect 9 0 2 0;
#X connect 10 0 3 0;
#X connect 11 0 3 0;
#X connect 13 0 15 0;
#X connect 13 0 16 0;
#X connect 15 0 16 0;
#X connect 16 0 12 0;
#X connect 18 0 21 0;
#X connect 18 0 24 0;
#X connect 21 0 19 0;
#X connect 22 0 8 0;
#X connect 23 0 22 0;
#X connect 24 0 21 0;
#X connect 25 0 9 0;
#X connect 26 0 10 0;
#X connect 26 0 11 0;
#X connect 27 0 46 0;
#X connect 27 0 48 0;
#X connect 27 0 49 0;
#X connect 28 0 45 0;
#X connect 28 0 50 0;
#X connect 33 0 43 0;
#X connect 33 0 51 0;
#X connect 36 0 38 0;
#X connect 36 0 52 0;
#X connect 38 0 52 0;
#X connect 40 0 44 0;
#X connect 40 0 65 0;
#X connect 43 0 51 0;
#X connect 44 0 65 0;
#X connect 45 0 50 0;
#X connect 46 0 48 0;
#X connect 46 0 49 0;
#X connect 48 0 30 0;
#X connect 49 0 30 0;
#X connect 50 0 29 0;
#X connect 51 0 34 0;
#X connect 52 0 35 0;
#X connect 53 0 55 0;
#X connect 53 0 57 0;
#X connect 53 0 58 0;
#X connect 55 0 57 0;
#X connect 55 0 58 0;
#X connect 57 0 54 0;
#X connect 58 0 54 0;
#X connect 59 0 61 0;
#X connect 59 0 63 0;
#X connect 59 0 64 0;
#X connect 61 0 63 0;
#X connect 61 0 64 0;
#X connect 63 0 60 0;
#X connect 64 0 60 0;
#X connect 65 0 41 0;
#X connect 66 0 68 0;
#X connect 66 0 69 0;
#X connect 68 0 69 0;
#X connect 69 0 67 0;
#X connect 71 0 73 0;
#X connect 71 0 75 0;
#X connect 73 0 75 0;
#X connect 75 0 72 0;
#X connect 76 0 78 0;
#X connect 76 0 80 0;
#X connect 78 0 80 0;
#X connect 80 0 77 0;
#X connect 81 0 83 0;
#X connect 81 0 85 0;
#X connect 83 0 85 0;
#X connect 85 0 82 0;
#X connect 86 0 89 0;
#X connect 86 0 91 0;
#X connect 86 0 92 0;
#X connect 89 0 91 0;
#X connect 89 0 92 0;
#X connect 91 0 87 0;
#X connect 92 0 87 0;
#X connect 93 0 95 0;
#X connect 93 0 97 0;
#X connect 93 0 98 0;
#X connect 95 0 97 0;
#X connect 95 0 98 0;
#X connect 97 0 94 0;
#X connect 98 0 94 0;
