#N canvas 174 22 779 743 10;
#X obj 46 15 bng 15 250 50 0 empty empty empty 17 7 0 10 -262144 -1
-1;
#X obj 46 43 openpanel;
#X obj 46 103 soundfiler;
#X floatatom 66 136 5 0 0 0 - - -;
#X obj 66 166 s sampleSize;
#X obj 46 212 expr 44100/$f1;
#X floatatom 63 246 5 0 0 0 - - -;
#X obj 63 274 s phasorRate;
#X obj 46 366 phasor~;
#X obj 61 309 loadbang;
#X msg 61 333 0;
#X obj 173 338 r phasorPlace;
#X obj 82 392 r sampleSize;
#X obj 46 469 tabread4~ leftChannel;
#X obj 59 498 tabread4~ rightChannel;
#X obj 45 540 *~ 1;
#X obj 96 540 *~ 1;
#X obj 45 570 freeverb~;
#X obj 144 521 loadbang;
#X msg 144 543 dry 1;
#X obj 47 602 dac~;
#X obj 540 239 r platter;
#X obj 609 239 r green;
#X obj 609 265 tgl 15 0 empty empty empty 17 7 0 10 -262144 -1 -1 0
1;
#X obj 540 298 spigot;
#X obj 543 324 hsl 128 15 0 1 0 0 empty empty empty -2 -8 0 10 -262144
-1 -1 0 1;
#X obj 540 349 change;
#X obj 595 362 r FXdial;
#X obj 595 394 * 40000;
#X obj 540 396 *;
#X obj 540 429 i;
#X obj 540 462 nbx 5 14 -1e+37 1e+37 0 0 empty empty empty 0 -8 0 10
-262144 -1 -1 0 256;
#X obj 540 530 line~;
#X obj 540 559 s~ scratchIT;
#N canvas 0 22 450 278 (subpatch) 0;
#X array leftChannel 872960 float 2;
#X coords 0 1 872960 -1 200 140 1 0 0;
#X restore 46 639 graph;
#N canvas 0 22 450 278 (subpatch) 0;
#X array rightChannel 872960 float 2;
#X coords 0 1 872960 -1 200 140 1;
#X restore 262 638 graph;
#X msg 46 72 read -resize \$1 leftChannel rightChannel;
#X obj 529 95 hsl 128 15 0 1 0 0 empty empty empty -2 -8 0 10 -262144
-1 -1 2540 1;
#X obj 517 123 s FXdial;
#X obj 633 21 tgl 15 0 empty empty empty 17 7 0 10 -262144 -1 -1 0
1;
#X obj 632 46 s green;
#X obj 595 419 nbx 5 14 -1e+37 1e+37 0 0 empty empty empty 0 -8 0 10
-262144 -1 -1 8000 256;
#X obj 74 438 r~ scratchIT;
#X obj 351 27 hsl 128 15 0 1 0 0 empty empty empty -2 -8 0 10 -262144
-1 -1 0 1;
#X obj 346 63 s platter;
#X msg 162 232 0;
#X obj 183 209 sel 1;
#X obj 202 257 f;
#X obj 204 232 t b;
#X obj 518 28 loadbang;
#X obj 227 209 r phasorRate;
#X obj 122 309 bng 15 250 50 0 empty empty empty 17 7 0 10 -262144
-1 -1;
#X obj 122 337 f;
#X obj 149 307 r phasorRate;
#X obj 198 412 loadbang;
#X obj 197 434 metro 50;
#X obj 205 462 snapshot~;
#X floatatom 208 488 5 0 0 0 - - -;
#X obj 220 526 /;
#X obj 222 556 s phasorPlace;
#X obj 246 488 r sampleSize;
#X obj 210 587 hsl 128 15 0 127 0 0 empty empty empty -2 -8 0 10 -262144
-1 -1 0 1;
#X obj 259 406 tgl 15 0 empty empty empty 17 7 0 10 -262144 -1 -1 0
1;
#X msg 540 495 \$1 100;
#X obj 352 274 Oprhe_new;
#X obj 334 310 r ReverseFw;
#X obj 425 304 r PlayPause;
#X obj 348 4 r scratchPos;
#X obj 634 0 r startScratch;
#X obj 161 130 r Play;
#X obj 212 131 r Pause;
#X obj 211 165 r green;
#X msg 175 171 1;
#X obj 268 163 r Rev;
#X obj 234 230 t f f f;
#X obj 248 257 * -1;
#X obj 284 258 f;
#X obj 249 282 f;
#X obj 307 164 r Fw;
#X obj 46 412 *~;
#X msg 519 57 0.2;
#X obj 672 484 r phasorPlace;
#X obj 672 507 t f f;
#X obj 667 604 -;
#X obj 621 675 s phasorPlace;
#X obj 651 450 r green;
#X obj 655 541 spigot;
#X obj 657 625 moses 0;
#X obj 649 649 i;
#X connect 0 0 1 0;
#X connect 1 0 36 0;
#X connect 2 0 3 0;
#X connect 2 0 5 0;
#X connect 3 0 4 0;
#X connect 5 0 6 0;
#X connect 5 0 8 0;
#X connect 6 0 7 0;
#X connect 8 0 79 0;
#X connect 9 0 10 0;
#X connect 10 0 8 0;
#X connect 11 0 8 1;
#X connect 12 0 79 1;
#X connect 13 0 15 0;
#X connect 14 0 16 0;
#X connect 15 0 17 0;
#X connect 16 0 17 1;
#X connect 17 0 20 0;
#X connect 17 1 20 1;
#X connect 18 0 19 0;
#X connect 19 0 17 0;
#X connect 21 0 24 0;
#X connect 22 0 23 0;
#X connect 23 0 24 1;
#X connect 24 0 25 0;
#X connect 25 0 26 0;
#X connect 26 0 29 0;
#X connect 27 0 28 0;
#X connect 28 0 41 0;
#X connect 29 0 30 0;
#X connect 30 0 31 0;
#X connect 31 0 63 0;
#X connect 32 0 33 0;
#X connect 36 0 2 0;
#X connect 37 0 38 0;
#X connect 39 0 40 0;
#X connect 41 0 29 1;
#X connect 41 0 83 1;
#X connect 42 0 13 0;
#X connect 42 0 14 0;
#X connect 43 0 44 0;
#X connect 45 0 8 0;
#X connect 46 0 45 0;
#X connect 46 1 48 0;
#X connect 47 0 8 0;
#X connect 48 0 47 0;
#X connect 49 0 80 0;
#X connect 50 0 74 0;
#X connect 51 0 52 0;
#X connect 52 0 8 0;
#X connect 53 0 52 1;
#X connect 54 0 55 0;
#X connect 55 0 56 0;
#X connect 56 0 57 0;
#X connect 57 0 58 0;
#X connect 58 0 59 0;
#X connect 58 0 61 0;
#X connect 60 0 58 1;
#X connect 62 0 55 0;
#X connect 63 0 32 0;
#X connect 67 0 43 0;
#X connect 68 0 39 0;
#X connect 69 0 45 0;
#X connect 70 0 72 0;
#X connect 71 0 46 0;
#X connect 72 0 45 0;
#X connect 73 0 77 0;
#X connect 74 0 47 1;
#X connect 74 1 75 0;
#X connect 74 2 76 1;
#X connect 75 0 77 1;
#X connect 76 0 8 0;
#X connect 77 0 8 0;
#X connect 78 0 76 0;
#X connect 79 0 13 0;
#X connect 79 0 14 0;
#X connect 79 0 56 0;
#X connect 80 0 37 0;
#X connect 81 0 82 0;
#X connect 82 0 86 0;
#X connect 83 0 87 0;
#X connect 85 0 86 1;
#X connect 86 0 83 0;
#X connect 87 1 88 0;
#X connect 88 0 84 0;
