#N canvas 155 22 779 743 10;
#X obj 46 15 bng 15 250 50 0 empty empty empty 17 7 0 10 -262144 -1
-1;
#X obj 46 43 openpanel;
#X obj 46 103 soundfiler;
#X floatatom 66 136 5 0 0 0 - - -;
#X obj 66 166 s sampleSize;
#X obj 46 212 expr 44100/$f1;
#X floatatom 63 246 5 0 0 0 - - -;
#X obj 63 274 s phasorRate;
#X obj 46 366 phasor~;
#X obj 61 309 loadbang;
#X msg 61 333 0;
#X obj 127 310 bng 15 250 50 0 empty empty empty 17 7 0 10 -262144
-1 -1;
#X obj 127 338 f;
#X obj 154 308 r phasorRate;
#X obj 173 338 r phasorPlace;
#X obj 46 412 *~;
#X obj 82 392 r sampleSize;
#X obj 46 469 tabread4~ leftChannel;
#X obj 59 498 tabread4~ rightChannel;
#X obj 45 540 *~ 1;
#X obj 96 540 *~ 1;
#X obj 45 570 freeverb~;
#X obj 144 521 loadbang;
#X msg 144 543 dry 1;
#X obj 47 602 dac~;
#X obj 349 22 r green;
#X obj 349 51 change;
#X obj 349 78 sel 1;
#X obj 349 108 bng 15 250 50 0 empty empty empty 17 7 0 10 -262144
-1 -1;
#X obj 376 108 bng 15 250 50 0 empty empty empty 17 7 0 10 -262144
-1 -1;
#X msg 349 135 0;
#X obj 381 135 f;
#X obj 346 164 s phasorPlace;
#X obj 346 213 r platter;
#X obj 415 213 r green;
#X obj 415 239 tgl 15 0 empty empty empty 17 7 0 10 -262144 -1 -1 0
1;
#X obj 346 272 spigot;
#X obj 349 302 hsl 128 15 0 1 0 0 empty empty empty -2 -8 0 10 -262144
-1 -1 0 1;
#X obj 346 327 change;
#X obj 424 340 r FXdial;
#X obj 424 372 * 40000;
#X obj 346 409 *;
#X obj 346 442 i;
#X obj 346 475 nbx 5 14 -1e+37 1e+37 0 0 empty empty empty 0 -8 0 10
-262144 -1 -1 0 256;
#X msg 346 507 \$1 100;
#X obj 346 543 line~;
#X obj 362 588 s~ scratchIT;
#X obj 415 91 r phasorRate;
#X floatatom 415 112 5 0 0 0 - - -;
#N canvas 0 22 450 278 (subpatch) 0;
#X array leftChannel 2.6455e+06 float 2;
#X coords 0 1 2.6455e+06 -1 200 140 1 0 0;
#X restore 46 639 graph;
#N canvas 0 22 450 278 (subpatch) 0;
#X array rightChannel 2.6455e+06 float 2;
#X coords 0 1 2.6455e+06 -1 200 140 1;
#X restore 262 638 graph;
#X msg 46 72 read -resize \$1 leftChannel rightChannel;
#X obj 546 185 hsl 128 15 0 1 0 0 empty empty empty -2 -8 0 10 -262144
-1 -1 12700 1;
#X obj 541 216 s FXdial;
#X obj 548 249 tgl 15 0 empty empty empty 17 7 0 10 -262144 -1 -1 0
1;
#X obj 547 274 s green;
#X obj 401 432 nbx 5 14 -1e+37 1e+37 0 0 empty empty empty 0 -8 0 10
-262144 -1 -1 40000 256;
#X obj 194 417 r~ scratchIT;
#X obj 613 221 hsl 128 15 0 1 0 0 empty empty empty -2 -8 0 10 -262144
-1 -1 0 1;
#X obj 608 252 s platter;
#X obj 643 131 abs;
#X obj 643 92 hid/hid_rel2abs 0 1;
#X obj 643 112 - 1;
#X obj 541 112 abs;
#X obj 541 73 hid/hid_rel2abs 0 1;
#X obj 541 93 - 1;
#X obj 568 10 hid/mouse 1;
#X connect 0 0 1 0;
#X connect 1 0 51 0;
#X connect 2 0 3 0;
#X connect 2 0 5 0;
#X connect 3 0 4 0;
#X connect 5 0 6 0;
#X connect 5 0 8 0;
#X connect 6 0 7 0;
#X connect 8 0 15 0;
#X connect 9 0 10 0;
#X connect 10 0 8 0;
#X connect 11 0 12 0;
#X connect 12 0 8 0;
#X connect 13 0 12 1;
#X connect 14 0 8 1;
#X connect 15 0 17 0;
#X connect 15 0 18 0;
#X connect 16 0 15 1;
#X connect 17 0 19 0;
#X connect 18 0 20 0;
#X connect 19 0 21 0;
#X connect 20 0 21 1;
#X connect 21 0 24 0;
#X connect 21 1 24 1;
#X connect 22 0 23 0;
#X connect 23 0 21 0;
#X connect 25 0 26 0;
#X connect 26 0 27 0;
#X connect 27 0 28 0;
#X connect 27 1 29 0;
#X connect 28 0 30 0;
#X connect 29 0 31 0;
#X connect 30 0 32 0;
#X connect 31 0 32 0;
#X connect 33 0 36 0;
#X connect 33 0 37 0;
#X connect 34 0 35 0;
#X connect 35 0 36 1;
#X connect 37 0 38 0;
#X connect 38 0 41 0;
#X connect 39 0 40 0;
#X connect 40 0 56 0;
#X connect 41 0 42 0;
#X connect 42 0 43 0;
#X connect 43 0 44 0;
#X connect 44 0 45 0;
#X connect 45 0 46 0;
#X connect 47 0 48 0;
#X connect 48 0 31 1;
#X connect 51 0 2 0;
#X connect 52 0 53 0;
#X connect 54 0 55 0;
#X connect 56 0 41 1;
#X connect 57 0 17 0;
#X connect 57 0 18 0;
#X connect 58 0 59 0;
#X connect 60 0 58 0;
#X connect 61 0 62 0;
#X connect 62 0 60 0;
#X connect 63 0 52 0;
#X connect 64 0 65 0;
#X connect 65 0 63 0;
#X connect 66 0 64 0;
#X connect 66 1 61 0;
