#N canvas 0 22 293 225 10;
#X obj 45 57 max -100;
#X floatatom 35 86 5 0 0 0 - - -;
#X obj 77 85 t f;
#X obj 107 56 min 100;
#X obj 107 85 t f;
#X floatatom 136 86 5 0 0 0 - - -;
#X obj 79 30 inlet;
#X obj 54 128 outlet;
#X obj 110 126 outlet;
#X connect 0 0 2 0;
#X connect 2 0 0 1;
#X connect 2 0 1 0;
#X connect 2 0 7 0;
#X connect 3 0 4 0;
#X connect 4 0 5 0;
#X connect 4 0 3 1;
#X connect 4 0 8 0;
#X connect 6 0 0 0;
#X connect 6 0 3 0;
