#N canvas 7 83 1280 752 10;
#X obj -314 123 cnv 15 550 900 empty empty empty 20 12 0 14 -228856
-66577 0;
#X obj 258 120 cnv 15 550 900 empty empty empty 20 12 0 14 -228856
-66577 0;
#N canvas 0 22 450 278 (subpatch) 0;
#X array \$0_RIGHTquat1 40 float 5;
#A 0 -0.520813 -0.520813 -0.520813 -0.521545 -0.521484 -0.521484 -0.521423
-0.521423 -0.521484 -0.521484 -0.521484 -0.521484 -0.521484 -0.521484
-0.521423 -0.521423 -0.521423 -0.521423 -0.521423 -0.521423 -0.521423
-0.521423 -0.521423 -0.521423 -0.520935 -0.520935 -0.520813 -0.520813
-0.520752 -0.520752 -0.520813 -0.520813 -0.520813 -0.520813 -0.520874
-0.520874 -0.520874 -0.520874 -0.520935 -0.520813;
#X coords 0 1 39 -1 100 70 1 0 0;
#X restore 280 216 graph;
#N canvas 0 22 450 278 (subpatch) 0;
#X array \$0_RIGHTquat2 40 float 5;
#A 0 0.0203247 0.0196533 0.0196533 0.0192261 0.0192261 0.0192261 0.0192261
0.0192261 0.0198364 0.0198364 0.0197754 0.0197754 0.0198364 0.0198364
0.0198364 0.0198364 0.0198975 0.0198975 0.0198364 0.0198364 0.0198364
0.0198364 0.0198364 0.0198364 0.0194702 0.0194702 0.0202637 0.0202637
0.0203857 0.0203857 0.0205688 0.0205688 0.020813 0.020813 0.020813
0.020813 0.0206299 0.0206299 0.0195312 0.0203247;
#X coords 0 1 39 -1 100 70 1 0 0;
#X restore 415 218 graph;
#N canvas 0 22 450 278 (subpatch) 0;
#X array \$0_RIGHTquat3 40 float 5;
#A 0 -0.00152588 -0.000854492 -0.000854492 -0.00109863 -0.00109863
-0.00109863 -0.00109863 -0.00109863 -0.00164795 -0.00164795 -0.00164795
-0.00164795 -0.00170898 -0.00170898 -0.00183105 -0.00183105 -0.00183105
-0.00183105 -0.00183105 -0.00183105 -0.00177002 -0.00177002 -0.00189209
-0.00189209 -0.000915527 -0.000915527 -0.00152588 -0.00152588 -0.00152588
-0.00152588 -0.00164795 -0.00164795 -0.00183105 -0.00183105 -0.00183105
-0.00183105 -0.00170898 -0.00170898 -0.0010376 -0.00152588;
#X coords 0 1 39 -1 100 70 1 0 0;
#X restore 544 218 graph;
#N canvas 0 22 450 278 (subpatch) 0;
#X array \$0_RIGHTquat0 40 float 5;
#A 0 -0.853455 -0.853455 -0.853455 -0.853088 -0.853088 -0.853088 -0.853088
-0.853088 -0.853088 -0.853088 -0.853088 -0.853088 -0.853088 -0.853088
-0.853088 -0.853088 -0.853149 -0.853149 -0.853088 -0.853088 -0.853088
-0.853088 -0.853149 -0.853149 -0.853394 -0.853394 -0.853455 -0.853455
-0.853516 -0.853516 -0.853455 -0.853455 -0.853455 -0.853455 -0.853455
-0.853455 -0.853394 -0.853394 -0.853455 -0.853455;
#X coords 0 1 39 -1 100 70 1 0 0;
#X restore 676 218 graph;
#N canvas 0 22 450 278 (subpatch) 0;
#X array \$0_LEFTquat1 40 float 5;
#A 0 -0.217102 -0.217102 -0.217102 -0.216797 -0.217407 -0.217407 -0.217285
-0.217285 -0.217285 -0.217285 -0.217285 -0.217285 -0.217285 -0.217285
-0.217224 -0.217224 -0.217224 -0.217224 -0.217285 -0.217285 -0.217224
-0.217224 -0.217346 -0.217346 -0.217346 -0.217346 -0.217224 -0.217224
-0.217468 -0.217468 -0.21759 -0.21759 -0.218018 -0.218018 -0.21759
-0.21759 -0.217224 -0.217224 -0.217224 -0.217102;
#X coords 0 1 39 -1 100 70 1 0 0;
#X restore -292 219 graph;
#N canvas 0 22 450 278 (subpatch) 0;
#X array \$0_LEFTquat2 40 float 5;
#A 0 0.0358887 0.0358887 0.0358887 0.0358887 0.0343018 0.0343018 0.0340576
0.0340576 0.0338135 0.0338135 0.0338135 0.0338135 0.0340576 0.0340576
0.0344238 0.0344238 0.0346069 0.0346069 0.0337524 0.0337524 0.0338745
0.0338745 0.0338135 0.0338135 0.0333252 0.0333252 0.0342407 0.0342407
0.0345459 0.0345459 0.0342407 0.0342407 0.0339966 0.0339966 0.0354614
0.0354614 0.0360718 0.0360718 0.0360107 0.0358887;
#X coords 0 1 39 -1 100 70 1 0 0;
#X restore -157 221 graph;
#N canvas 0 22 450 278 (subpatch) 0;
#X array \$0_LEFTquat3 40 float 5;
#A 0 0.00445557 0.00445557 0.00445557 0.00445557 0.00592041 0.00592041
0.00561523 0.00561523 0.00549316 0.00549316 0.0055542 0.0055542 0.00543213
0.00543213 0.00531006 0.00531006 0.00524902 0.00524902 0.00549316 0.00549316
0.0055542 0.0055542 0.0055542 0.0055542 0.00567627 0.00567627 0.00543213
0.00543213 0.00524902 0.00524902 0.00512695 0.00512695 0.00524902 0.00524902
0.00457764 0.00457764 0.00439453 0.00439453 0.00445557 0.00445557;
#X coords 0 1 39 -1 100 70 1 0 0;
#X restore -28 221 graph;
#N canvas 0 22 450 278 (subpatch) 0;
#X array \$0_LEFTquat0 40 float 5;
#A 0 -0.975525 -0.975525 -0.975525 -0.975586 -0.975464 -0.975464 -0.975525
-0.975525 -0.975525 -0.975525 -0.975525 -0.975525 -0.975525 -0.975525
-0.975525 -0.975525 -0.975525 -0.975525 -0.975525 -0.975525 -0.975525
-0.975525 -0.975525 -0.975525 -0.975525 -0.975525 -0.975525 -0.975525
-0.975464 -0.975464 -0.975464 -0.975464 -0.975403 -0.975403 -0.975403
-0.975403 -0.975464 -0.975464 -0.975464 -0.975525;
#X coords 0 1 39 -1 100 70 1 0 0;
#X restore 104 221 graph;
#N canvas 0 22 450 278 (subpatch) 0;
#X array \$0_LEFTacc1 40 float 5;
#A 0 -0.0210571 -0.0211182 -0.0211182 -0.0211792 -0.0223999 -0.0223999
-0.0220642 -0.0220642 -0.0220642 -0.0220642 -0.0221252 -0.0221252 -0.0221558
-0.0221558 -0.0219421 -0.0219421 -0.0215454 -0.0215454 -0.0221558 -0.0221558
-0.0229187 -0.0229187 -0.0220642 -0.0220642 -0.0224915 -0.0224915 -0.0219727
-0.0219727 -0.0218201 -0.0218201 -0.0220337 -0.0220337 -0.0219727 -0.0219727
-0.0213623 -0.0213623 -0.0210876 -0.0210876 -0.0213623 -0.0210571;
#X coords 0 1 39 -1 100 70 1 0 0;
#X restore -292 412 graph;
#N canvas 0 22 450 278 (subpatch) 0;
#X array \$0_LEFTacc2 40 float 5;
#A 0 -0.00131226 -0.00146484 -0.00146484 -0.00137329 -0.00100708 -0.00100708
-0.00143433 -0.00143433 -0.00134277 -0.00134277 -0.000579834 -0.000579834
-0.00140381 -0.00140381 -0.00119019 -0.00119019 -0.00115967 -0.00115967
-0.000976562 -0.000976562 -0.000305176 -0.000305176 -0.00115967 -0.00115967
-0.00119019 -0.00119019 -0.00115967 -0.00115967 -0.00128174 -0.00128174
-0.00143433 -0.00143433 -0.00134277 -0.00134277 -0.00131226 -0.00131226
-0.00149536 -0.00149536 -0.00109863 -0.00131226;
#X coords 0 1 39 -1 100 70 1 0 0;
#X restore -158 413 graph;
#N canvas 0 22 450 278 (subpatch) 0;
#X array \$0_LEFTacc3 40 float 5;
#A 0 0.261749 0.262054 0.262054 0.262024 0.261963 0.261963 0.261749
0.261749 0.261383 0.261383 0.263306 0.263306 0.262146 0.262146 0.262054
0.262054 0.26236 0.26236 0.261688 0.261688 0.262024 0.262024 0.26236
0.26236 0.26236 0.26236 0.26178 0.26178 0.262177 0.262177 0.261993
0.261993 0.261078 0.261078 0.262512 0.262512 0.261963 0.261963 0.261932
0.261749;
#X coords 0 1 39 -1 100 70 1 0 0;
#X restore -25 414 graph;
#N canvas 0 22 450 278 (subpatch) 0;
#X array \$0_LEFTgyro1 40 float 5;
#A 0 -0.00390625 -0.00390625 -0.00390625 0 -0.00390625 -0.00390625
0 0 -0.00390625 -0.00390625 0 0 0 0 -0.00390625 -0.00390625 0 0 -0.00390625
-0.00390625 0 0 0 0 -0.00390625 -0.00390625 0 0 0 0 0 0 -0.00390625
-0.00390625 0 0 -0.00390625 -0.00390625 0 -0.00390625;
#X coords 0 1 39 -1 100 70 1 0 0;
#X restore -293 607 graph;
#N canvas 0 22 450 278 (subpatch) 0;
#X array \$0_LEFTgyro2 40 float 5;
#A 0 0 -0.00390625 -0.00390625 -0.00390625 0 0 -0.00390625 -0.00390625
0 0 -0.00390625 -0.00390625 0 0 0 0 -0.00390625 -0.00390625 -0.00390625
-0.00390625 0 0 -0.00390625 -0.00390625 -0.00390625 -0.00390625 -0.00390625
-0.00390625 -0.00390625 -0.00390625 -0.00390625 -0.00390625 -0.00390625
-0.00390625 -0.00390625 -0.00390625 -0.00390625 -0.00390625 0 0;
#X coords 0 1 39 -1 100 70 1 0 0;
#X restore -159 608 graph;
#N canvas 0 22 450 278 (subpatch) 0;
#X array \$0_LEFTgyro3 40 float 5;
#A 0 0 -0.00390625 -0.00390625 -0.00390625 -0.00390625 -0.00390625
0 0 -0.00390625 -0.00390625 0 0 0 0 0 0 -0.00390625 -0.00390625 0 0
-0.00390625 -0.00390625 -0.00390625 -0.00390625 -0.00390625 -0.00390625
-0.00390625 -0.00390625 -0.00390625 -0.00390625 -0.00390625 -0.00390625
0 0 0 0 -0.00390625 -0.00390625 0 0;
#X coords 0 1 39 -1 100 70 1 0 0;
#X restore -26 609 graph;
#N canvas 0 22 450 278 (subpatch) 0;
#X array \$0_LEFTmag1 40 float 5;
#A 0 0.71875 0.742188 0.742188 0.6875 0.742188 0.742188 0.765625 0.765625
0.71875 0.71875 0.71875 0.71875 0.742188 0.742188 0.6875 0.6875 0.742188
0.742188 0.75 0.75 0.71875 0.71875 0.742188 0.742188 0.726562 0.726562
0.726562 0.726562 0.757812 0.757812 0.75 0.75 0.734375 0.734375 0.734375
0.734375 0.757812 0.757812 0.75 0.71875;
#X coords 0 1 39 -1 100 70 1 0 0;
#X restore -295 789 graph;
#N canvas 0 22 450 278 (subpatch) 0;
#X array \$0_LEFTmag2 40 float 5;
#A 0 0.0937805 0.039093 0.039093 0.0312805 -0.992188 -0.992188 0.0312805
0.0312805 0.0625305 0.0625305 0.0625305 0.0625305 0.00784302 0.00784302
0.0781555 0.0781555 0.070343 0.070343 0.0937805 0.0937805 0.0937805
0.0937805 0.101593 0.101593 0.070343 0.070343 0.132843 0.132843 0.054718
0.054718 0.0312805 0.0312805 -0.96875 -0.96875 0.0781555 0.0781555
0.039093 0.039093 0.0469055 0.0937805;
#X coords 0 1 39 -1 100 70 1 0 0;
#X restore -161 790 graph;
#N canvas 0 22 450 278 (subpatch) 0;
#X array \$0_LEFTmag3 40 float 5;
#A 0 -0.976471 -0.984283 -0.984283 -0.945221 -0.999908 -0.999908 0.00775146
0.00775146 -0.992096 -0.992096 -0.992096 -0.992096 -0.984283 -0.984283
-0.960846 -0.960846 -0.953033 -0.953033 -0.992096 -0.992096 -0.976471
-0.976471 -0.984283 -0.984283 -0.968658 -0.968658 -0.968658 -0.968658
-0.968658 -0.968658 -0.992096 -0.992096 -0.992096 -0.992096 -0.976471
-0.976471 -0.984283 -0.984283 -0.976471 -0.976471;
#X coords 0 1 39 -1 100 70 1 0 0;
#X restore -28 791 graph;
#N canvas 0 22 450 278 (subpatch) 0;
#X array \$0_RIGHTacc1 40 float 5;
#A 0 -0.0139771 -0.0141602 -0.0141602 -0.0144043 -0.0143127 -0.0143127
-0.0139771 -0.0139771 -0.0145264 -0.0145264 -0.0141907 -0.0141907 -0.0139465
-0.0139465 -0.0139771 -0.0139771 -0.0139771 -0.0139771 -0.0141296 -0.0141296
-0.0141602 -0.0141602 -0.0140076 -0.0140076 -0.0143738 -0.0143738 -0.0140991
-0.0140991 -0.0142212 -0.0142212 -0.013855 -0.013855 -0.0138245 -0.0138245
-0.0138245 -0.0138245 -0.0135803 -0.0135803 -0.0142517 -0.0139771;
#X coords 0 1 39 -1 100 70 1 0 0;
#X restore 281 416 graph;
#N canvas 0 22 450 278 (subpatch) 0;
#X array \$0_RIGHTacc2 40 float 5;
#A 0 -0.00262451 -0.0027771 -0.0027771 -0.00302124 -0.00317383 -0.00317383
-0.00317383 -0.00317383 -0.00308228 -0.00308228 -0.0032959 -0.0032959
-0.00320435 -0.00320435 -0.00317383 -0.00317383 -0.00317383 -0.00317383
-0.00317383 -0.00317383 -0.00314331 -0.00314331 -0.00317383 -0.00317383
-0.00274658 -0.00274658 -0.00302124 -0.00302124 -0.00274658 -0.00274658
-0.00283813 -0.00283813 -0.0027771 -0.0027771 -0.00296021 -0.00296021
-0.00271606 -0.00271606 -0.00271606 -0.00262451;
#X coords 0 1 39 -1 100 70 1 0 0;
#X restore 415 417 graph;
#N canvas 0 22 450 278 (subpatch) 0;
#X array \$0_RIGHTacc3 40 float 5;
#A 0 0.262146 0.261963 0.261963 0.262238 0.262024 0.262024 0.261932
0.261932 0.262512 0.262512 0.262238 0.262238 0.262299 0.262299 0.262177
0.262177 0.262115 0.262115 0.262054 0.262054 0.262115 0.262115 0.261505
0.261505 0.262329 0.262329 0.261414 0.261414 0.263214 0.263214 0.262115
0.262115 0.261749 0.261749 0.261932 0.261932 0.261902 0.261902 0.261993
0.262146;
#X coords 0 1 39 -1 100 70 1 0 0;
#X restore 548 418 graph;
#N canvas 0 22 450 278 (subpatch) 0;
#X array \$0_RIGHTgyro1 40 float 5;
#A 0 -0.00390625 0 0 -0.00390625 -0.00390625 -0.00390625 -0.00390625
-0.00390625 0 0 -0.00390625 -0.00390625 0 0 0 0 0 0 -0.00390625 -0.00390625
-0.00390625 -0.00390625 0 0 -0.00390625 -0.00390625 -0.00390625 -0.00390625
0 0 0 0 -0.00390625 -0.00390625 0 0 -0.00390625 -0.00390625 0 -0.00390625
;
#X coords 0 1 39 -1 100 70 1 0 0;
#X restore 283 601 graph;
#N canvas 0 22 450 278 (subpatch) 0;
#X array \$0_RIGHTgyro2 40 float 5;
#A 0 0 0 0 -0.00390625 -0.00390625 -0.00390625 -0.00390625 -0.00390625
0 0 -0.00390625 -0.00390625 -0.00390625 -0.00390625 -0.00390625 -0.00390625
-0.00390625 -0.00390625 -0.00390625 -0.00390625 -0.00390625 -0.00390625
-0.00390625 -0.00390625 -0.00390625 -0.00390625 0 0 0 0 0 0 -0.00390625
-0.00390625 0 0 -0.00390625 -0.00390625 -0.00390625 0;
#X coords 0 1 39 -1 100 70 1 0 0;
#X restore 417 602 graph;
#N canvas 0 22 450 278 (subpatch) 0;
#X array \$0_RIGHTgyro3 40 float 5;
#A 0 0 -0.00390625 -0.00390625 -0.00390625 -0.00390625 -0.00390625
0 0 -0.00390625 -0.00390625 -0.00390625 -0.00390625 -0.00390625 -0.00390625
0 0 0 0 0 0 0 0 0 0 0 0 0 0 0 0 -0.00390625 -0.00390625 0 0 -0.00390625
-0.00390625 -0.00390625 -0.00390625 -0.00390625 0;
#X coords 0 1 39 -1 100 70 1 0 0;
#X restore 550 603 graph;
#N canvas 0 22 450 278 (subpatch) 0;
#X array \$0_RIGHTmag1 40 float 5;
#A 0 0.796875 0.804688 0.804688 0.859375 0.835938 0.835938 0.804688
0.804688 0.8125 0.8125 0.820312 0.820312 0.882812 0.882812 0.851562
0.851562 0.828125 0.828125 0.804688 0.804688 0.789062 0.789062 0.835938
0.835938 0.804688 0.804688 0.84375 0.84375 0.8125 0.8125 0.796875 0.796875
0.796875 0.796875 0.789062 0.789062 0.789062 0.789062 0.796875 0.796875
;
#X coords 0 1 39 -1 100 70 1 0 0;
#X restore 277 786 graph;
#N canvas 0 22 450 278 (subpatch) 0;
#X array \$0_RIGHTmag2 40 float 5;
#A 0 -0.992126 -0.984314 -0.984314 -0.976501 0.0312195 0.0312195 -0.984314
-0.984314 -0.976501 -0.976501 -0.921814 -0.921814 -0.921814 -0.921814
-0.953064 -0.953064 -0.960876 -0.960876 -0.984314 -0.984314 0.0155945
0.0155945 -0.984314 -0.984314 0.0155945 0.0155945 -0.960876 -0.960876
-0.976501 -0.976501 -0.976501 -0.976501 -0.960876 -0.960876 -0.937439
-0.937439 -0.937439 -0.937439 -0.992126 -0.992126;
#X coords 0 1 39 -1 100 70 1 0 0;
#X restore 411 787 graph;
#N canvas 0 22 450 278 (subpatch) 0;
#X array \$0_RIGHTmag3 40 float 5;
#A 0 0.585876 0.609314 0.609314 0.585876 0.593689 0.593689 0.578064
0.578064 0.601501 0.601501 0.593689 0.593689 0.609314 0.609314 0.609314
0.609314 0.585876 0.585876 0.562439 0.562439 0.546814 0.546814 0.609314
0.609314 0.593689 0.593689 0.632751 0.632751 0.601501 0.601501 0.617126
0.617126 0.570251 0.570251 0.593689 0.593689 0.593689 0.593689 0.585876
0.585876;
#X coords 0 1 39 -1 100 70 1 0 0;
#X restore 544 788 graph;
#X text 437 148 ***RIGHT shoe sensor value***;
#X text -148 157 ***LEFT shoe sensor value***;
#X obj 822 122 cnv 15 300 250 empty empty empty 20 12 0 14 -262130
-66577 0;
#X msg 838 239 close;
#X text 876 242 Close Serial port;
#X text 887 210 Open serial port by number;
#X obj 838 269 r trigger_message;
#X text 953 300 port number and baudrate;
#X obj 838 329 s serialMessages;
#X obj 838 299 comport 3 57600;
#X obj 838 179 loadbang;
#X text 837 136 ***Serial Port Select***;
#X obj -289 294 r LQuat1;
#X obj -152 296 r LQuat2;
#X obj -19 298 r LQuat3;
#X obj 113 297 r LQuat0;
#X obj -290 489 r LAccX;
#X obj -156 486 r LAccY;
#X obj -20 486 r LAccZ;
#X obj -288 685 r LGyroX;
#X obj -159 682 r LGyroY;
#X obj -26 683 r LGyroZ;
#X obj -291 865 r LMagX;
#X obj -157 860 r LMagY;
#X obj -26 868 r LMagZ;
#X obj 284 294 r RQuat1;
#X obj 418 298 r RQuat2;
#X obj 549 297 r RQuat3;
#X obj 673 296 r RQuat0;
#X obj 282 489 r RAccX;
#X obj 415 492 r RAccY;
#X obj 284 676 r RGyroX;
#X obj 419 677 r RGyroY;
#X obj 551 675 r RGyroZ;
#X obj 278 864 r RMagX;
#X obj 412 862 r RMagY;
#X obj 545 861 r RMagZ;
#X floatatom -293 322 5 0 0 0 - - -;
#X obj -249 324 hsl 50 15 -1 1 0 0 empty empty empty -2 -8 0 10 -262144
-1 -1 1918 1;
#X floatatom -152 323 5 0 0 0 - - -;
#X obj -108 325 hsl 50 15 -1 1 0 0 empty empty empty -2 -8 0 10 -262144
-1 -1 0 1;
#X floatatom -24 323 5 0 0 0 - - -;
#X obj 20 325 hsl 50 15 -1 1 0 0 empty empty empty -2 -8 0 10 -262144
-1 -1 0 1;
#X floatatom 109 326 5 0 0 0 - - -;
#X obj 153 328 hsl 50 15 -1 1 0 0 empty empty empty -2 -8 0 10 -262144
-1 -1 60 1;
#X floatatom 284 320 5 0 0 0 - - -;
#X obj 327 322 hsl 50 15 -1 1 0 0 empty empty empty -2 -8 0 10 -262144
-1 -1 1174 1;
#X floatatom 418 321 5 0 0 0 - - -;
#X obj 462 323 hsl 50 15 -1 1 0 0 empty empty empty -2 -8 0 10 -262144
-1 -1 2498 1;
#X floatatom 549 321 5 0 0 0 - - -;
#X obj 593 323 hsl 50 15 -1 1 0 0 empty empty empty -2 -8 0 10 -262144
-1 -1 2448 1;
#X floatatom 673 322 5 0 0 0 - - -;
#X obj 717 324 hsl 50 15 -1 1 0 0 empty empty empty -2 -8 0 10 -262144
-1 -1 359 1;
#X floatatom -290 511 5 0 0 0 - - -;
#X obj -246 513 hsl 50 15 -1 1 0 0 empty empty empty -2 -8 0 10 -262144
-1 -1 2398 1;
#X floatatom -149 512 5 0 0 0 - - -;
#X obj -105 514 hsl 50 15 -1 1 0 0 empty empty empty -2 -8 0 10 -262144
-1 -1 2446 1;
#X floatatom -21 512 5 0 0 0 - - -;
#X obj 23 514 hsl 50 15 -1 1 0 0 empty empty empty -2 -8 0 10 -262144
-1 -1 3092 1;
#X floatatom 282 515 5 0 0 0 - - -;
#X obj 325 517 hsl 50 15 -1 1 0 0 empty empty empty -2 -8 0 10 -262144
-1 -1 2415 1;
#X floatatom 416 516 5 0 0 0 - - -;
#X obj 460 518 hsl 50 15 -1 1 0 0 empty empty empty -2 -8 0 10 -262144
-1 -1 2443 1;
#X floatatom 547 516 5 0 0 0 - - -;
#X obj 591 518 hsl 50 15 -1 1 0 0 empty empty empty -2 -8 0 10 -262144
-1 -1 3092 1;
#X obj 547 493 r RAccZ;
#X floatatom 284 702 5 0 0 0 - - -;
#X obj 327 704 hsl 50 15 -1 1 0 0 empty empty empty -2 -8 0 10 -262144
-1 -1 2450 1;
#X floatatom 418 703 5 0 0 0 - - -;
#X obj 462 705 hsl 50 15 -1 1 0 0 empty empty empty -2 -8 0 10 -262144
-1 -1 2450 1;
#X floatatom 549 703 5 0 0 0 - - -;
#X obj 593 705 hsl 50 15 -1 1 0 0 empty empty empty -2 -8 0 10 -262144
-1 -1 2440 1;
#X floatatom 277 891 5 0 0 0 - - -;
#X obj 320 893 hsl 50 15 -1 1 0 0 empty empty empty -2 -8 0 10 -262144
-1 -1 4421 1;
#X floatatom 412 890 5 0 0 0 - - -;
#X obj 456 892 hsl 50 15 -1 1 0 0 empty empty empty -2 -8 0 10 -262144
-1 -1 38 1;
#X floatatom 545 888 5 0 0 0 - - -;
#X obj 589 890 hsl 50 15 -1 1 0 0 empty empty empty -2 -8 0 10 -262144
-1 -1 3943 1;
#X floatatom -288 709 5 0 0 0 - - -;
#X obj -244 711 hsl 50 15 -1 1 0 0 empty empty empty -2 -8 0 10 -262144
-1 -1 2440 1;
#X floatatom -159 708 5 0 0 0 - - -;
#X obj -115 710 hsl 50 15 -1 1 0 0 empty empty empty -2 -8 0 10 -262144
-1 -1 2440 1;
#X floatatom -26 708 5 0 0 0 - - -;
#X obj 18 710 hsl 50 15 -1 1 0 0 empty empty empty -2 -8 0 10 -262144
-1 -1 2440 1;
#X floatatom -291 889 5 0 0 0 - - -;
#X obj -247 891 hsl 50 15 -1 1 0 0 empty empty empty -2 -8 0 10 -262144
-1 -1 4268 1;
#X floatatom -157 886 5 0 0 0 - - -;
#X obj -113 888 hsl 50 15 -1 1 0 0 empty empty empty -2 -8 0 10 -262144
-1 -1 2546 1;
#X floatatom -26 891 5 0 0 0 - - -;
#X obj 18 893 hsl 50 15 -1 1 0 0 empty empty empty -2 -8 0 10 -262144
-1 -1 39 1;
#X msg 838 209 open 5;
#X obj 1241 555 moses 0;
#X obj 1278 578 bng 15 250 50 0 empty empty empty 17 7 0 10 -262144
-1 -1;
#X obj 1240 580 bng 15 250 50 0 empty empty empty 17 7 0 10 -262144
-1 -1;
#X obj 1206 119 -;
#X floatatom 1159 153 5 0 0 0 - - -;
#X obj 1208 150 t f f;
#X obj 1222 399 r RQuat0;
#X obj 1147 198 moses -0.4;
#X obj 1258 195 moses 0.5;
#X obj 1033 640 r RAccY;
#X obj 1096 699 tgl 15 0 empty empty empty 17 7 0 10 -262144 -1 -1
1 1;
#X text 1059 743 Scratch;
#X obj 1036 723 hsl 128 15 0 1 0 0 empty empty empty -2 -8 0 10 -262144
-1 -1 0 1;
#X obj 926 699 tgl 15 0 empty empty empty 17 7 0 10 -262144 -1 -1 0
1;
#X obj 866 723 hsl 128 15 0 1 0 0 empty empty empty -2 -8 0 10 -262144
-1 -1 0 1;
#X obj 863 641 r RAccX;
#X obj 1272 451 median_interval;
#X obj 1225 425 t f f;
#X obj 1273 479 +;
#X obj 1272 502 / 2;
#X text 908 741 Pitch;
#X obj 927 638 r RMagY;
#X obj 1309 224 delaybang;
#X obj 829 403 cnv 15 300 150 empty empty empty 20 12 0 14 -204800
-66577 0;
#N canvas 237 110 728 561 mpu9150trigger 0;
#X obj 147 254 s trigger_message;
#X text 114 16 mpu9150 trigger;
#X obj 147 179 bng 15 250 50 0 empty empty empty 17 7 0 10 -262144
-1 -1;
#X obj 147 219 pack 252 0 0 0;
#X obj 440 254 s trigger_message;
#X obj 440 179 bng 15 250 50 0 empty empty empty 17 7 0 10 -262144
-1 -1;
#X obj 440 219 pack 252 255 255 255;
#X text 29 164 L;
#X text 67 164 R;
#X text 100 165 LR;
#X obj 26 147 r L;
#X obj 59 147 r R;
#X obj 94 147 r LR;
#X msg 24 186 250;
#X msg 60 185 251;
#X msg 97 185 252;
#X text 334 161 L;
#X text 372 161 R;
#X text 405 162 LR;
#X obj 331 144 r L;
#X obj 364 144 r R;
#X obj 399 144 r LR;
#X msg 329 183 250;
#X msg 365 182 251;
#X msg 402 182 252;
#X obj 440 144 r mpu9150_on;
#X obj 147 144 r mpu9150_off;
#X obj 295 352 tgl 15 0 empty empty empty 17 7 0 10 -262144 -1 -1 1
1;
#X msg 331 305 1;
#X msg 236 309 0;
#X obj 290 397 outlet;
#X obj 265 26 inlet;
#X obj 266 60 tgl 15 0 empty empty empty 17 7 0 10 -262144 -1 -1 1
1;
#X obj 264 96 sel 0;
#X obj 368 48 s mpu9150_on;
#X obj 368 26 bng 15 250 50 0 empty empty empty 17 7 0 10 -262144 -1
-1;
#X obj 461 26 bng 15 250 50 0 empty empty empty 17 7 0 10 -262144 -1
-1;
#X obj 462 46 s mpu9150_off;
#X connect 2 0 3 0;
#X connect 2 0 29 0;
#X connect 3 0 0 0;
#X connect 5 0 6 0;
#X connect 5 0 28 0;
#X connect 6 0 4 0;
#X connect 10 0 13 0;
#X connect 11 0 14 0;
#X connect 12 0 15 0;
#X connect 13 0 3 0;
#X connect 14 0 3 0;
#X connect 15 0 3 0;
#X connect 19 0 22 0;
#X connect 20 0 23 0;
#X connect 21 0 24 0;
#X connect 22 0 6 0;
#X connect 23 0 6 0;
#X connect 24 0 6 0;
#X connect 25 0 5 0;
#X connect 26 0 2 0;
#X connect 27 0 30 0;
#X connect 28 0 27 0;
#X connect 29 0 27 0;
#X connect 31 0 32 0;
#X connect 32 0 33 0;
#X connect 33 0 2 0;
#X connect 33 1 5 0;
#X connect 35 0 34 0;
#X connect 36 0 37 0;
#X restore 848 464 pd mpu9150trigger;
#X obj 847 437 tgl 15 1 empty empty empty 17 7 0 10 -262144 -1 -1 1
1;
#N canvas 0 22 1280 700 receiveSerialMessages 0;
#N canvas 0 22 450 278 (subpatch) 0;
#X array \$0_mpuLeft 33 float 1;
#A 0 36 242 28 2 75 0 73 193 145 255 255 0 0 0 0 94 0 8 1 254 253 253
177 255 42 33 148 100 3 0 0 0 0;
#X coords 0 255 32 0 600 140 1 0 0;
#X restore -14110 -404 graph;
#X obj -14379 828 bng 15 250 50 0 empty empty empty 17 7 0 10 -262144
-1 -1;
#X msg -13396 -72 1;
#X msg -13259 -72 3;
#X msg -13119 -74 5;
#X msg -12991 -73 7;
#X msg -13318 247 21;
#X msg -13181 247 23;
#X msg -13041 245 25;
#X text -13161 172 ACC;
#X text -13151 879 MAG;
#X msg -13308 954 15;
#X msg -13171 954 17;
#X msg -13031 952 19;
#X text -13146 495 GYRO;
#X msg -13337 576 9;
#X msg -13191 576 11;
#X msg -13008 582 13;
#X text -13184 -133 quaternion;
#X obj -13443 51 t f b;
#X obj -13391 49 counter 0 40;
#X obj -13286 51 t f b;
#X obj -13234 49 counter 0 40;
#X obj -13136 51 t f b;
#X obj -13084 49 counter 0 40;
#X obj -12982 50 t f b;
#X obj -12930 48 counter 0 40;
#N canvas 0 22 450 278 (subpatch) 0;
#X array \$0_mpuRight 33 float 1;
#A 0 37 222 171 1 63 255 244 201 96 255 255 255 255 255 255 104 0 252
254 72 254 254 233 255 93 33 136 100 3 0 0 0 0;
#X coords 0 255 32 0 600 140 1 0 0;
#X restore -13469 -403 graph;
#X obj -13396 -100 r readTableBngLEFT;
#X obj -13259 -100 r readTableBngLEFT;
#X obj -13119 -102 r readTableBngLEFT;
#X obj -12991 -101 r readTableBngLEFT;
#X obj -13319 219 r readTableBngLEFT;
#X obj -13181 219 r readTableBngLEFT;
#X obj -13041 217 r readTableBngLEFT;
#X obj -13008 554 r readTableBngLEFT;
#X obj -13191 548 r readTableBngLEFT;
#X obj -13337 548 r readTableBngLEFT;
#X obj -13308 926 r readTableBngLEFT;
#X obj -13171 926 r readTableBngLEFT;
#X obj -13031 924 r readTableBngLEFT;
#N canvas 1018 375 671 701 shiftResistGyroL 0;
#X obj 50 185 >> 7;
#X floatatom 49 215 5 0 0 0 - - -;
#X floatatom 389 534 5 -65000 65000 0 - - -;
#X obj 387 578 hsl 50 15 -1 1 0 0 empty empty empty -2 -8 0 10 -262144
-1 -1 0 1;
#X obj 468 578 print gyro;
#X obj 107 42 inlet;
#X obj 261 109 + 1;
#X floatatom 264 199 5 0 0 0 - - -;
#X floatatom 73 430 5 0 0 0 - - -;
#X obj 71 390 expr if($f1==0 \, $f2 \, $f2 - 256);
#X text 304 304 ジャイロに関しては上位バイトは符号の役割のみで下位バイトのみが動きに合わせて機能してる
上位バイトが0のときはそのまま　255の時はマイナスで
下位バイトをそのまま出力もしくは 下位バイト−２５６　した値を出力するとOFとPDが揃う
;
#X obj 110 72 t f f;
#X text 159 45 t f f とすることで計算の順番をそろえる
;
#X obj 74 465 / 256;
#X obj 74 496 outlet;
#X obj 48 146 tabread \$0_mpuLeft;
#X obj 263 144 tabread \$0_mpuLeft;
#X connect 0 0 1 0;
#X connect 1 0 9 0;
#X connect 2 0 3 0;
#X connect 5 0 11 0;
#X connect 6 0 16 0;
#X connect 7 0 9 1;
#X connect 8 0 13 0;
#X connect 9 0 8 0;
#X connect 11 0 15 0;
#X connect 11 1 6 0;
#X connect 13 0 14 0;
#X connect 15 0 0 0;
#X connect 16 0 7 0;
#X restore -13337 609 pd shiftResistGyroL;
#N canvas 852 26 671 701 shiftResistGyroL 0;
#X obj 50 185 >> 7;
#X floatatom 49 215 5 0 0 0 - - -;
#X floatatom 389 534 5 -65000 65000 0 - - -;
#X obj 387 578 hsl 50 15 -1 1 0 0 empty empty empty -2 -8 0 10 -262144
-1 -1 0 1;
#X obj 468 578 print gyro;
#X obj 107 42 inlet;
#X obj 261 109 + 1;
#X floatatom 264 199 5 0 0 0 - - -;
#X floatatom 73 430 5 0 0 0 - - -;
#X obj 71 390 expr if($f1==0 \, $f2 \, $f2 - 256);
#X text 304 304 ジャイロに関しては上位バイトは符号の役割のみで下位バイトのみが動きに合わせて機能してる
上位バイトが0のときはそのまま　255の時はマイナスで
下位バイトをそのまま出力もしくは 下位バイト−２５６　した値を出力するとOFとPDが揃う
;
#X obj 110 72 t f f;
#X text 159 45 t f f とすることで計算の順番をそろえる
;
#X obj 74 465 / 256;
#X obj 74 496 outlet;
#X obj 48 146 tabread \$0_mpuLeft;
#X obj 263 144 tabread \$0_mpuLeft;
#X connect 0 0 1 0;
#X connect 1 0 9 0;
#X connect 2 0 3 0;
#X connect 5 0 11 0;
#X connect 6 0 16 0;
#X connect 7 0 9 1;
#X connect 8 0 13 0;
#X connect 9 0 8 0;
#X connect 11 0 15 0;
#X connect 11 1 6 0;
#X connect 13 0 14 0;
#X connect 15 0 0 0;
#X connect 16 0 7 0;
#X restore -13191 606 pd shiftResistGyroL;
#N canvas 852 26 671 701 shiftResistGyroL 0;
#X obj 50 185 >> 7;
#X floatatom 49 215 5 0 0 0 - - -;
#X floatatom 389 534 5 -65000 65000 0 - - -;
#X obj 387 578 hsl 50 15 -1 1 0 0 empty empty empty -2 -8 0 10 -262144
-1 -1 0 1;
#X obj 468 578 print gyro;
#X obj 107 42 inlet;
#X obj 261 109 + 1;
#X floatatom 264 199 5 0 0 0 - - -;
#X floatatom 73 430 5 0 0 0 - - -;
#X obj 71 390 expr if($f1==0 \, $f2 \, $f2 - 256);
#X text 304 304 ジャイロに関しては上位バイトは符号の役割のみで下位バイトのみが動きに合わせて機能してる
上位バイトが0のときはそのまま　255の時はマイナスで
下位バイトをそのまま出力もしくは 下位バイト−２５６　した値を出力するとOFとPDが揃う
;
#X obj 110 72 t f f;
#X text 159 45 t f f とすることで計算の順番をそろえる
;
#X obj 74 465 / 256;
#X obj 74 496 outlet;
#X obj 48 146 tabread \$0_mpuLeft;
#X obj 263 144 tabread \$0_mpuLeft;
#X connect 0 0 1 0;
#X connect 1 0 9 0;
#X connect 2 0 3 0;
#X connect 5 0 11 0;
#X connect 6 0 16 0;
#X connect 7 0 9 1;
#X connect 8 0 13 0;
#X connect 9 0 8 0;
#X connect 11 0 15 0;
#X connect 11 1 6 0;
#X connect 13 0 14 0;
#X connect 15 0 0 0;
#X connect 16 0 7 0;
#X restore -13010 610 pd shiftResistGyroL;
#N canvas 570 22 498 549 shiftResist2byteL 0;
#X floatatom 85 139 5 0 0 0 - - -;
#X floatatom 300 137 5 0 0 0 - - -;
#X obj 77 195 >> 7;
#X floatatom 75 229 5 0 0 0 - - -;
#X obj 175 200 & 127;
#X floatatom 176 231 5 0 0 0 - - -;
#X floatatom 268 346 5 0 0 0 - - -;
#X obj 289 370 + 0;
#X floatatom 289 430 5 0 0 0 - - -;
#X floatatom 316 347 5 0 0 0 - - -;
#X obj 268 321 << 8;
#X obj 289 457 / 32768;
#X obj 288 404 *;
#X floatatom 108 342 5 0 0 0 - - -;
#X obj 74 259 sel 1;
#X msg 68 296 -1;
#X msg 113 296 1;
#X obj 87 57 inlet;
#X obj 236 74 + 1;
#X obj 291 501 outlet;
#X obj 85 111 tabread \$0_mpuLeft;
#X obj 300 109 tabread \$0_mpuLeft;
#X connect 0 0 2 0;
#X connect 0 0 4 0;
#X connect 1 0 9 0;
#X connect 2 0 3 0;
#X connect 3 0 14 0;
#X connect 4 0 5 0;
#X connect 5 0 10 0;
#X connect 6 0 7 0;
#X connect 7 0 12 0;
#X connect 8 0 11 0;
#X connect 9 0 7 1;
#X connect 10 0 6 0;
#X connect 11 0 19 0;
#X connect 12 0 8 0;
#X connect 13 0 12 1;
#X connect 14 0 15 0;
#X connect 14 1 16 0;
#X connect 15 0 13 0;
#X connect 16 0 13 0;
#X connect 17 0 18 0;
#X connect 17 0 20 0;
#X connect 18 0 21 0;
#X connect 20 0 0 0;
#X connect 21 0 1 0;
#X restore -13308 982 pd shiftResist2byteL;
#N canvas 570 22 498 549 shiftResist2byteL 0;
#X floatatom 85 139 5 0 0 0 - - -;
#X floatatom 300 137 5 0 0 0 - - -;
#X obj 77 195 >> 7;
#X floatatom 75 229 5 0 0 0 - - -;
#X obj 175 200 & 127;
#X floatatom 176 231 5 0 0 0 - - -;
#X floatatom 268 346 5 0 0 0 - - -;
#X obj 289 370 + 0;
#X floatatom 289 430 5 0 0 0 - - -;
#X floatatom 316 347 5 0 0 0 - - -;
#X obj 268 321 << 8;
#X obj 289 457 / 32768;
#X obj 288 404 *;
#X floatatom 108 342 5 0 0 0 - - -;
#X obj 74 259 sel 1;
#X msg 68 296 -1;
#X msg 113 296 1;
#X obj 87 57 inlet;
#X obj 236 74 + 1;
#X obj 291 501 outlet;
#X obj 85 111 tabread \$0_mpuLeft;
#X obj 300 109 tabread \$0_mpuLeft;
#X connect 0 0 2 0;
#X connect 0 0 4 0;
#X connect 1 0 9 0;
#X connect 2 0 3 0;
#X connect 3 0 14 0;
#X connect 4 0 5 0;
#X connect 5 0 10 0;
#X connect 6 0 7 0;
#X connect 7 0 12 0;
#X connect 8 0 11 0;
#X connect 9 0 7 1;
#X connect 10 0 6 0;
#X connect 11 0 19 0;
#X connect 12 0 8 0;
#X connect 13 0 12 1;
#X connect 14 0 15 0;
#X connect 14 1 16 0;
#X connect 15 0 13 0;
#X connect 16 0 13 0;
#X connect 17 0 18 0;
#X connect 17 0 20 0;
#X connect 18 0 21 0;
#X connect 20 0 0 0;
#X connect 21 0 1 0;
#X restore -13171 982 pd shiftResist2byteL;
#N canvas 570 22 498 549 shiftResist2byteL 0;
#X floatatom 85 139 5 0 0 0 - - -;
#X floatatom 300 137 5 0 0 0 - - -;
#X obj 77 195 >> 7;
#X floatatom 75 229 5 0 0 0 - - -;
#X obj 175 200 & 127;
#X floatatom 176 231 5 0 0 0 - - -;
#X floatatom 268 346 5 0 0 0 - - -;
#X obj 289 370 + 0;
#X floatatom 289 430 5 0 0 0 - - -;
#X floatatom 316 347 5 0 0 0 - - -;
#X obj 268 321 << 8;
#X obj 289 457 / 32768;
#X obj 288 404 *;
#X floatatom 108 342 5 0 0 0 - - -;
#X obj 74 259 sel 1;
#X msg 68 296 -1;
#X msg 113 296 1;
#X obj 87 57 inlet;
#X obj 236 74 + 1;
#X obj 291 501 outlet;
#X obj 85 111 tabread \$0_mpuLeft;
#X obj 300 109 tabread \$0_mpuLeft;
#X connect 0 0 2 0;
#X connect 0 0 4 0;
#X connect 1 0 9 0;
#X connect 2 0 3 0;
#X connect 3 0 14 0;
#X connect 4 0 5 0;
#X connect 5 0 10 0;
#X connect 6 0 7 0;
#X connect 7 0 12 0;
#X connect 8 0 11 0;
#X connect 9 0 7 1;
#X connect 10 0 6 0;
#X connect 11 0 19 0;
#X connect 12 0 8 0;
#X connect 13 0 12 1;
#X connect 14 0 15 0;
#X connect 14 1 16 0;
#X connect 15 0 13 0;
#X connect 16 0 13 0;
#X connect 17 0 18 0;
#X connect 17 0 20 0;
#X connect 18 0 21 0;
#X connect 20 0 0 0;
#X connect 21 0 1 0;
#X restore -13030 981 pd shiftResist2byteL;
#X msg -12615 -70 1;
#X msg -12478 -70 3;
#X msg -12338 -72 5;
#X msg -12210 -71 7;
#X text -12403 -131 quaternion;
#X obj -12662 53 t f b;
#X obj -12610 51 counter 0 40;
#X obj -12505 53 t f b;
#X obj -12453 51 counter 0 40;
#X obj -12355 53 t f b;
#X obj -12303 51 counter 0 40;
#X obj -12201 52 t f b;
#X obj -12149 50 counter 0 40;
#X obj -12615 -98 r readTableBngRIGHT;
#X obj -12478 -98 r readTableBngRIGHT;
#X obj -12338 -100 r readTableBngRIGHT;
#X obj -12210 -99 r readTableBngRIGHT;
#X obj -12661 83 tabwrite \$0_RIGHTquat1;
#X obj -12504 83 tabwrite \$0_RIGHTquat2;
#X obj -12354 83 tabwrite \$0_RIGHTquat3;
#X obj -12200 82 tabwrite \$0_RIGHTquat0;
#X obj -13359 373 t f b;
#X obj -13307 371 counter 0 40;
#X obj -13202 373 t f b;
#X obj -13150 371 counter 0 40;
#X obj -13052 373 t f b;
#X obj -13000 371 counter 0 40;
#X obj -13358 403 tabwrite \$0_LEFTacc1;
#X obj -13201 403 tabwrite \$0_LEFTacc2;
#X obj -13051 403 tabwrite \$0_LEFTacc3;
#X obj -13340 699 t f b;
#X obj -13288 697 counter 0 40;
#X obj -13185 698 t f b;
#X obj -13133 696 counter 0 40;
#X obj -13009 699 t f b;
#X obj -12957 697 counter 0 40;
#X obj -13339 729 tabwrite \$0_LEFTgyro1;
#X obj -13184 728 tabwrite \$0_LEFTgyro2;
#X obj -13008 729 tabwrite \$0_LEFTgyro3;
#X obj -13329 1080 t f b;
#X obj -13277 1078 counter 0 40;
#X obj -13174 1079 t f b;
#X obj -13122 1077 counter 0 40;
#X obj -12998 1080 t f b;
#X obj -12946 1078 counter 0 40;
#X obj -13328 1110 tabwrite \$0_LEFTmag1;
#X obj -13173 1109 tabwrite \$0_LEFTmag2;
#X obj -12997 1110 tabwrite \$0_LEFTmag3;
#X text -12399 497 GYRO;
#X msg -12590 578 9;
#X msg -12444 578 11;
#X msg -12261 584 13;
#X obj -12593 701 t f b;
#X obj -12541 699 counter 0 40;
#X obj -12438 700 t f b;
#X obj -12386 698 counter 0 40;
#X obj -12262 701 t f b;
#X obj -12210 699 counter 0 40;
#X msg -12560 238 21;
#X msg -12423 238 23;
#X msg -12283 236 25;
#X text -12403 163 ACC;
#X obj -12601 364 t f b;
#X obj -12549 362 counter 0 40;
#X obj -12444 364 t f b;
#X obj -12392 362 counter 0 40;
#X obj -12294 364 t f b;
#X obj -12242 362 counter 0 40;
#X text -12367 862 MAG;
#X msg -12524 937 15;
#X msg -12387 937 17;
#X msg -12247 935 19;
#X obj -12545 1063 t f b;
#X obj -12493 1061 counter 0 40;
#X obj -12390 1062 t f b;
#X obj -12338 1060 counter 0 40;
#X obj -12214 1063 t f b;
#X obj -12162 1061 counter 0 40;
#X obj -12561 210 r readTableBngRIGHT;
#X obj -12423 210 r readTableBngRIGHT;
#X obj -12283 208 r readTableBngRIGHT;
#X obj -12600 394 tabwrite \$0_RIGHTacc1;
#X obj -12443 394 tabwrite \$0_RIGHTacc2;
#X obj -12293 394 tabwrite \$0_RIGHTacc3;
#X obj -12590 550 r readTableBngRIGHT;
#X obj -12444 550 r readTableBngRIGHT;
#X obj -12261 556 r readTableBngRIGHT;
#X obj -12592 731 tabwrite \$0_RIGHTgyro1;
#X obj -12437 730 tabwrite \$0_RIGHTgyro2;
#X obj -12261 731 tabwrite \$0_RIGHTgyro3;
#X obj -12524 909 r readTableBngRIGHT;
#X obj -12387 909 r readTableBngRIGHT;
#X obj -12247 907 r readTableBngRIGHT;
#X obj -12544 1093 tabwrite \$0_RIGHTmag1;
#X obj -12389 1092 tabwrite \$0_RIGHTmag2;
#X obj -12213 1093 tabwrite \$0_RIGHTmag3;
#N canvas 852 26 671 701 shiftResistGyroR 0;
#X obj 50 185 >> 7;
#X floatatom 49 215 5 0 0 0 - - -;
#X floatatom 389 534 5 -65000 65000 0 - - -;
#X obj 387 578 hsl 50 15 -1 1 0 0 empty empty empty -2 -8 0 10 -262144
-1 -1 0 1;
#X obj 468 578 print gyro;
#X obj 107 42 inlet;
#X obj 261 109 + 1;
#X floatatom 264 199 5 0 0 0 - - -;
#X floatatom 73 430 5 0 0 0 - - -;
#X obj 71 390 expr if($f1==0 \, $f2 \, $f2 - 256);
#X text 304 304 ジャイロに関しては上位バイトは符号の役割のみで下位バイトのみが動きに合わせて機能してる
上位バイトが0のときはそのまま　255の時はマイナスで
下位バイトをそのまま出力もしくは 下位バイト−２５６　した値を出力するとOFとPDが揃う
;
#X obj 110 72 t f f;
#X text 159 45 t f f とすることで計算の順番をそろえる
;
#X obj 74 465 / 256;
#X obj 74 496 outlet;
#X obj 48 146 tabread \$0_mpuRight;
#X obj 263 144 tabread \$0_mpuRight;
#X connect 0 0 1 0;
#X connect 1 0 9 0;
#X connect 2 0 3 0;
#X connect 5 0 11 0;
#X connect 6 0 16 0;
#X connect 7 0 9 1;
#X connect 8 0 13 0;
#X connect 9 0 8 0;
#X connect 11 0 15 0;
#X connect 11 1 6 0;
#X connect 13 0 14 0;
#X connect 15 0 0 0;
#X connect 16 0 7 0;
#X restore -12590 611 pd shiftResistGyroR;
#N canvas 852 26 671 701 shiftResistGyroR 0;
#X obj 50 185 >> 7;
#X floatatom 49 215 5 0 0 0 - - -;
#X floatatom 389 534 5 -65000 65000 0 - - -;
#X obj 387 578 hsl 50 15 -1 1 0 0 empty empty empty -2 -8 0 10 -262144
-1 -1 0 1;
#X obj 468 578 print gyro;
#X obj 107 42 inlet;
#X obj 261 109 + 1;
#X floatatom 264 199 5 0 0 0 - - -;
#X floatatom 73 430 5 0 0 0 - - -;
#X obj 71 390 expr if($f1==0 \, $f2 \, $f2 - 256);
#X text 304 304 ジャイロに関しては上位バイトは符号の役割のみで下位バイトのみが動きに合わせて機能してる
上位バイトが0のときはそのまま　255の時はマイナスで
下位バイトをそのまま出力もしくは 下位バイト−２５６　した値を出力するとOFとPDが揃う
;
#X obj 110 72 t f f;
#X text 159 45 t f f とすることで計算の順番をそろえる
;
#X obj 74 465 / 256;
#X obj 74 496 outlet;
#X obj 48 146 tabread \$0_mpuRight;
#X obj 263 144 tabread \$0_mpuRight;
#X connect 0 0 1 0;
#X connect 1 0 9 0;
#X connect 2 0 3 0;
#X connect 5 0 11 0;
#X connect 6 0 16 0;
#X connect 7 0 9 1;
#X connect 8 0 13 0;
#X connect 9 0 8 0;
#X connect 11 0 15 0;
#X connect 11 1 6 0;
#X connect 13 0 14 0;
#X connect 15 0 0 0;
#X connect 16 0 7 0;
#X restore -12444 610 pd shiftResistGyroR;
#N canvas 852 26 671 701 shiftResistGyroR 0;
#X obj 50 185 >> 7;
#X floatatom 49 215 5 0 0 0 - - -;
#X floatatom 389 534 5 -65000 65000 0 - - -;
#X obj 387 578 hsl 50 15 -1 1 0 0 empty empty empty -2 -8 0 10 -262144
-1 -1 0 1;
#X obj 468 578 print gyro;
#X obj 107 42 inlet;
#X obj 261 109 + 1;
#X floatatom 264 199 5 0 0 0 - - -;
#X floatatom 73 430 5 0 0 0 - - -;
#X obj 71 390 expr if($f1==0 \, $f2 \, $f2 - 256);
#X text 304 304 ジャイロに関しては上位バイトは符号の役割のみで下位バイトのみが動きに合わせて機能してる
上位バイトが0のときはそのまま　255の時はマイナスで
下位バイトをそのまま出力もしくは 下位バイト−２５６　した値を出力するとOFとPDが揃う
;
#X obj 110 72 t f f;
#X text 159 45 t f f とすることで計算の順番をそろえる
;
#X obj 74 465 / 256;
#X obj 74 496 outlet;
#X obj 48 146 tabread \$0_mpuRight;
#X obj 263 144 tabread \$0_mpuRight;
#X connect 0 0 1 0;
#X connect 1 0 9 0;
#X connect 2 0 3 0;
#X connect 5 0 11 0;
#X connect 6 0 16 0;
#X connect 7 0 9 1;
#X connect 8 0 13 0;
#X connect 9 0 8 0;
#X connect 11 0 15 0;
#X connect 11 1 6 0;
#X connect 13 0 14 0;
#X connect 15 0 0 0;
#X connect 16 0 7 0;
#X restore -12261 616 pd shiftResistGyroR;
#N canvas 570 22 498 549 shiftResist2byteR 0;
#X floatatom 85 139 5 0 0 0 - - -;
#X floatatom 300 137 5 0 0 0 - - -;
#X obj 77 195 >> 7;
#X floatatom 75 229 5 0 0 0 - - -;
#X obj 175 200 & 127;
#X floatatom 176 231 5 0 0 0 - - -;
#X floatatom 268 346 5 0 0 0 - - -;
#X obj 289 370 + 0;
#X floatatom 289 430 5 0 0 0 - - -;
#X floatatom 316 347 5 0 0 0 - - -;
#X obj 268 321 << 8;
#X obj 289 457 / 32768;
#X obj 288 404 *;
#X floatatom 108 342 5 0 0 0 - - -;
#X obj 74 259 sel 1;
#X msg 68 296 -1;
#X msg 113 296 1;
#X obj 87 57 inlet;
#X obj 236 74 + 1;
#X obj 291 501 outlet;
#X obj 85 111 tabread \$0_mpuRight;
#X obj 300 109 tabread \$0_mpuRight;
#X connect 0 0 2 0;
#X connect 0 0 4 0;
#X connect 1 0 9 0;
#X connect 2 0 3 0;
#X connect 3 0 14 0;
#X connect 4 0 5 0;
#X connect 5 0 10 0;
#X connect 6 0 7 0;
#X connect 7 0 12 0;
#X connect 8 0 11 0;
#X connect 9 0 7 1;
#X connect 10 0 6 0;
#X connect 11 0 19 0;
#X connect 12 0 8 0;
#X connect 13 0 12 1;
#X connect 14 0 15 0;
#X connect 14 1 16 0;
#X connect 15 0 13 0;
#X connect 16 0 13 0;
#X connect 17 0 18 0;
#X connect 17 0 20 0;
#X connect 18 0 21 0;
#X connect 20 0 0 0;
#X connect 21 0 1 0;
#X restore -12532 965 pd shiftResist2byteR;
#N canvas 570 22 498 549 shiftResist2byteR 0;
#X floatatom 85 139 5 0 0 0 - - -;
#X floatatom 300 137 5 0 0 0 - - -;
#X obj 77 195 >> 7;
#X floatatom 75 229 5 0 0 0 - - -;
#X obj 175 200 & 127;
#X floatatom 176 231 5 0 0 0 - - -;
#X floatatom 268 346 5 0 0 0 - - -;
#X obj 289 370 + 0;
#X floatatom 289 430 5 0 0 0 - - -;
#X floatatom 316 347 5 0 0 0 - - -;
#X obj 268 321 << 8;
#X obj 289 457 / 32768;
#X obj 288 404 *;
#X floatatom 108 342 5 0 0 0 - - -;
#X obj 74 259 sel 1;
#X msg 68 296 -1;
#X msg 113 296 1;
#X obj 87 57 inlet;
#X obj 236 74 + 1;
#X obj 291 501 outlet;
#X obj 85 111 tabread \$0_mpuRight;
#X obj 300 109 tabread \$0_mpuRight;
#X connect 0 0 2 0;
#X connect 0 0 4 0;
#X connect 1 0 9 0;
#X connect 2 0 3 0;
#X connect 3 0 14 0;
#X connect 4 0 5 0;
#X connect 5 0 10 0;
#X connect 6 0 7 0;
#X connect 7 0 12 0;
#X connect 8 0 11 0;
#X connect 9 0 7 1;
#X connect 10 0 6 0;
#X connect 11 0 19 0;
#X connect 12 0 8 0;
#X connect 13 0 12 1;
#X connect 14 0 15 0;
#X connect 14 1 16 0;
#X connect 15 0 13 0;
#X connect 16 0 13 0;
#X connect 17 0 18 0;
#X connect 17 0 20 0;
#X connect 18 0 21 0;
#X connect 20 0 0 0;
#X connect 21 0 1 0;
#X restore -12390 966 pd shiftResist2byteR;
#N canvas 570 22 498 549 shiftResist2byteR 0;
#X floatatom 85 139 5 0 0 0 - - -;
#X floatatom 300 137 5 0 0 0 - - -;
#X obj 77 195 >> 7;
#X floatatom 75 229 5 0 0 0 - - -;
#X obj 175 200 & 127;
#X floatatom 176 231 5 0 0 0 - - -;
#X floatatom 268 346 5 0 0 0 - - -;
#X obj 289 370 + 0;
#X floatatom 289 430 5 0 0 0 - - -;
#X floatatom 316 347 5 0 0 0 - - -;
#X obj 268 321 << 8;
#X obj 289 457 / 32768;
#X obj 288 404 *;
#X floatatom 108 342 5 0 0 0 - - -;
#X obj 74 259 sel 1;
#X msg 68 296 -1;
#X msg 113 296 1;
#X obj 87 57 inlet;
#X obj 236 74 + 1;
#X obj 291 501 outlet;
#X obj 85 111 tabread \$0_mpuRight;
#X obj 300 109 tabread \$0_mpuRight;
#X connect 0 0 2 0;
#X connect 0 0 4 0;
#X connect 1 0 9 0;
#X connect 2 0 3 0;
#X connect 3 0 14 0;
#X connect 4 0 5 0;
#X connect 5 0 10 0;
#X connect 6 0 7 0;
#X connect 7 0 12 0;
#X connect 8 0 11 0;
#X connect 9 0 7 1;
#X connect 10 0 6 0;
#X connect 11 0 19 0;
#X connect 12 0 8 0;
#X connect 13 0 12 1;
#X connect 14 0 15 0;
#X connect 14 1 16 0;
#X connect 15 0 13 0;
#X connect 16 0 13 0;
#X connect 17 0 18 0;
#X connect 17 0 20 0;
#X connect 18 0 21 0;
#X connect 20 0 0 0;
#X connect 21 0 1 0;
#X restore -12247 966 pd shiftResist2byteR;
#N canvas 132 26 663 855 serialRecive 0;
#X obj -52 -51 t b f;
#X obj 13 93 f;
#X obj -2 143 f;
#X obj 28 66 t f b;
#X obj 13 115 t f b;
#X obj 46 -9 f;
#X obj 28 43 f;
#X obj 58 -34 t f b;
#X obj 43 15 t f b;
#X floatatom 94 -2 5 0 0 0 - - -;
#X floatatom 69 40 5 0 0 0 - - -;
#X floatatom 54 90 5 0 0 0 - - -;
#X floatatom 34 143 5 0 0 0 - - -;
#X floatatom -2 171 5 0 0 0 - - -;
#X obj -109 298 bng 15 250 50 0 empty empty empty 17 7 0 10 -262144
-1 -1;
#X obj -53 -87 r serialMessages;
#X obj -224 326 s readTableBngLEFT;
#X obj -47 215 expr if($f1==0 && $f2==0 && $f3==0 && $f4==0 && $f5==36
\, 36 \, 0) \; if($f1==0 && $f2==0 && $f3==0 && $f4==0 && $f5==37 \,
37 \, 0);
#X obj -109 267 sel 36;
#X obj 228 304 bng 15 250 50 0 empty empty empty 17 7 0 10 -262144
-1 -1;
#X obj 165 280 sel 37;
#X msg -28 321 0;
#X msg 84 325 1;
#X floatatom 25 360 5 0 0 0 - - -;
#X obj -133 29 s nextByte;
#X obj -192 432 r nextByte;
#X floatatom -190 464 5 0 0 0 - - -;
#X obj -214 511 expr if($f2 == 0 \, $f1 \, 300);
#X obj -194 549 moses 256;
#X floatatom -140 583 5 0 0 0 - - -;
#X floatatom -198 586 5 0 0 0 - - -;
#X obj -220 636 t f b;
#X obj -85 653 counter 0 32;
#X floatatom -38 684 5 0 0 0 - - -;
#X obj -220 675 tabwrite \$0_mpuLeft;
#X obj 127 424 r nextByte;
#X floatatom 129 456 5 0 0 0 - - -;
#X obj 125 541 moses 256;
#X floatatom 179 575 5 0 0 0 - - -;
#X floatatom 121 578 5 0 0 0 - - -;
#X obj 99 628 t f b;
#X obj 234 645 counter 0 32;
#X floatatom 281 676 5 0 0 0 - - -;
#X obj 105 503 expr if($f2 == 1 \, $f1 \, 300);
#X obj 99 667 tabwrite \$0_mpuRight;
#X obj 170 339 s readTableBngRIGHT;
#X connect 0 0 17 0;
#X connect 0 1 7 0;
#X connect 1 0 4 0;
#X connect 2 0 13 0;
#X connect 3 0 1 1;
#X connect 3 0 11 0;
#X connect 3 1 1 0;
#X connect 4 0 2 1;
#X connect 4 0 12 0;
#X connect 4 1 2 0;
#X connect 5 0 8 0;
#X connect 5 0 24 0;
#X connect 6 0 3 0;
#X connect 7 0 5 1;
#X connect 7 0 9 0;
#X connect 7 1 5 0;
#X connect 8 0 6 1;
#X connect 8 0 10 0;
#X connect 8 1 6 0;
#X connect 9 0 17 4;
#X connect 10 0 17 3;
#X connect 11 0 17 2;
#X connect 12 0 17 1;
#X connect 13 0 17 0;
#X connect 14 0 16 0;
#X connect 14 0 32 2;
#X connect 15 0 0 0;
#X connect 17 0 18 0;
#X connect 17 1 20 0;
#X connect 18 0 14 0;
#X connect 18 0 21 0;
#X connect 19 0 45 0;
#X connect 19 0 41 2;
#X connect 20 0 19 0;
#X connect 20 0 22 0;
#X connect 21 0 23 0;
#X connect 22 0 23 0;
#X connect 23 0 27 1;
#X connect 23 0 43 1;
#X connect 25 0 26 0;
#X connect 26 0 27 0;
#X connect 27 0 28 0;
#X connect 28 0 30 0;
#X connect 28 1 29 0;
#X connect 30 0 31 0;
#X connect 31 0 34 0;
#X connect 31 1 32 0;
#X connect 32 0 33 0;
#X connect 32 0 34 1;
#X connect 35 0 36 0;
#X connect 36 0 43 0;
#X connect 37 0 39 0;
#X connect 37 1 38 0;
#X connect 39 0 40 0;
#X connect 40 0 44 0;
#X connect 40 1 41 0;
#X connect 41 0 42 0;
#X connect 41 0 44 1;
#X connect 43 0 37 0;
#X restore -13548 -200 pd serialRecive;
#X text -13561 -239 ***read serial buffer here***;
#X obj -13295 319 s LAccX;
#X obj -13129 316 s LAccY;
#X obj -12974 316 s LAccZ;
#X obj -13076 3 s LQuat3;
#X obj -12929 -2 s LQuat0;
#X obj -13389 7 s LQuat1;
#X obj -13224 4 s LQuat2;
#X obj -13277 651 s LGyroX;
#X obj -13134 651 s LGyroY;
#X obj -12944 649 s LGyroZ;
#X obj -13262 1037 s LMagX;
#X obj -13104 1034 s LMagY;
#X obj -12929 1037 s LMagZ;
#X obj -12597 3 s RQuat1;
#X obj -12431 0 s RQuat2;
#X obj -12284 -1 s RQuat3;
#X obj -12137 -6 s RQuat0;
#X obj -12534 319 s RAccX;
#X obj -12368 316 s RAccY;
#X obj -12213 316 s RAccZ;
#X obj -12544 660 s RGyroX;
#X obj -12401 660 s RGyroY;
#X obj -12211 658 s RGyroZ;
#X obj -12485 1017 s RMagX;
#X obj -12327 1014 s RMagY;
#X obj -12152 1017 s RMagZ;
#N canvas 104 294 629 841 shiftResist2byteL 0;
#X obj -35 43 inlet;
#X obj 118 94 + 1;
#X obj 103 737 outlet;
#X obj 205 130 tabread \$0_mpuLeft;
#X obj -34 70 t f f;
#X obj -33 131 tabread \$0_mpuLeft;
#X floatatom 156 735 15 0 0 0 - - -;
#X floatatom 205 164 5 0 0 0 - - -;
#X obj 193 442 |;
#X floatatom 255 495 5 0 0 0 - - -;
#X obj -33 512 expr $f1<<8;
#X obj 91 602 / 32768;
#X obj -34 575 * -1;
#X obj -34 543 |;
#X floatatom -120 149 5 0 0 0 - - -;
#X obj 100 399 expr $f1<<8;
#X obj -32 365 & 127;
#X obj -33 202 moses 128;
#X floatatom 63 264 5 0 0 0 - - -;
#X floatatom -96 417 5 0 0 0 - - -;
#N canvas 345 771 450 300 ofmap 0;
#X obj 33 53 inlet val;
#X obj 287 53 inlet minOut;
#X obj 371 56 inlet maxOt;
#X obj 103 55 inlet minIn;
#X obj 199 55 inlet maxIn;
#X obj 41 114 expr (($f1 - $f2) / ($f3 - $f2) * ($f5 - $f4) + $f4)
;
#X obj 39 170 outlet;
#X connect 0 0 5 0;
#X connect 1 0 5 3;
#X connect 2 0 5 4;
#X connect 3 0 5 1;
#X connect 4 0 5 2;
#X connect 5 0 6 0;
#X restore -128 489 pd ofmap;
#X msg -207 451 0;
#X msg -172 450 127;
#X msg -109 451 0;
#X msg -141 450 127;
#X obj -197 401 loadbang;
#X obj -183 416 bng 15 250 50 0 empty empty empty 17 7 0 10 -262144
-1 -1;
#X connect 0 0 4 0;
#X connect 1 0 3 0;
#X connect 3 0 7 0;
#X connect 4 0 5 0;
#X connect 4 1 1 0;
#X connect 5 0 14 0;
#X connect 5 0 17 0;
#X connect 7 0 8 1;
#X connect 7 0 13 1;
#X connect 8 0 9 0;
#X connect 8 0 11 0;
#X connect 10 0 13 0;
#X connect 11 0 2 0;
#X connect 11 0 6 0;
#X connect 12 0 11 0;
#X connect 13 0 12 0;
#X connect 15 0 8 0;
#X connect 16 0 19 0;
#X connect 16 0 20 0;
#X connect 17 0 15 0;
#X connect 17 1 16 0;
#X connect 17 1 18 0;
#X connect 20 0 10 0;
#X connect 21 0 20 1;
#X connect 22 0 20 2;
#X connect 23 0 20 4;
#X connect 24 0 20 3;
#X connect 25 0 26 0;
#X connect 26 0 21 0;
#X connect 26 0 22 0;
#X connect 26 0 24 0;
#X connect 26 0 23 0;
#X restore -13360 287 pd shiftResist2byteL;
#N canvas 104 294 629 841 shiftResist2byteL 0;
#X obj -35 43 inlet;
#X obj 118 94 + 1;
#X obj 103 737 outlet;
#X obj 205 130 tabread \$0_mpuLeft;
#X obj -34 70 t f f;
#X obj -33 131 tabread \$0_mpuLeft;
#X floatatom 156 735 15 0 0 0 - - -;
#X floatatom 205 164 5 0 0 0 - - -;
#X obj 193 442 |;
#X floatatom 255 495 5 0 0 0 - - -;
#X obj -33 512 expr $f1<<8;
#X obj 91 602 / 32768;
#X obj -34 575 * -1;
#X obj -34 543 |;
#X floatatom -120 149 5 0 0 0 - - -;
#X obj 100 399 expr $f1<<8;
#X obj -32 365 & 127;
#X obj -33 202 moses 128;
#X floatatom 63 264 5 0 0 0 - - -;
#X floatatom -96 417 5 0 0 0 - - -;
#N canvas 345 771 450 300 ofmap 0;
#X obj 33 53 inlet val;
#X obj 287 53 inlet minOut;
#X obj 371 56 inlet maxOt;
#X obj 103 55 inlet minIn;
#X obj 199 55 inlet maxIn;
#X obj 41 114 expr (($f1 - $f2) / ($f3 - $f2) * ($f5 - $f4) + $f4)
;
#X obj 39 170 outlet;
#X connect 0 0 5 0;
#X connect 1 0 5 3;
#X connect 2 0 5 4;
#X connect 3 0 5 1;
#X connect 4 0 5 2;
#X connect 5 0 6 0;
#X restore -128 489 pd ofmap;
#X msg -207 451 0;
#X msg -172 450 127;
#X msg -109 451 0;
#X msg -141 450 127;
#X obj -197 401 loadbang;
#X obj -183 416 bng 15 250 50 0 empty empty empty 17 7 0 10 -262144
-1 -1;
#X connect 0 0 4 0;
#X connect 1 0 3 0;
#X connect 3 0 7 0;
#X connect 4 0 5 0;
#X connect 4 1 1 0;
#X connect 5 0 14 0;
#X connect 5 0 17 0;
#X connect 7 0 8 1;
#X connect 7 0 13 1;
#X connect 8 0 9 0;
#X connect 8 0 11 0;
#X connect 10 0 13 0;
#X connect 11 0 2 0;
#X connect 11 0 6 0;
#X connect 12 0 11 0;
#X connect 13 0 12 0;
#X connect 15 0 8 0;
#X connect 16 0 19 0;
#X connect 16 0 20 0;
#X connect 17 0 15 0;
#X connect 17 1 16 0;
#X connect 17 1 18 0;
#X connect 20 0 10 0;
#X connect 21 0 20 1;
#X connect 22 0 20 2;
#X connect 23 0 20 4;
#X connect 24 0 20 3;
#X connect 25 0 26 0;
#X connect 26 0 21 0;
#X connect 26 0 22 0;
#X connect 26 0 24 0;
#X connect 26 0 23 0;
#X restore -13194 287 pd shiftResist2byteL;
#N canvas 104 294 629 841 shiftResist2byteL 0;
#X obj -35 43 inlet;
#X obj 118 94 + 1;
#X obj 103 737 outlet;
#X obj 205 130 tabread \$0_mpuLeft;
#X obj -34 70 t f f;
#X obj -33 131 tabread \$0_mpuLeft;
#X floatatom 156 735 15 0 0 0 - - -;
#X floatatom 205 164 5 0 0 0 - - -;
#X obj 193 442 |;
#X floatatom 255 495 5 0 0 0 - - -;
#X obj -33 512 expr $f1<<8;
#X obj 91 602 / 32768;
#X obj -34 575 * -1;
#X obj -34 543 |;
#X floatatom -120 149 5 0 0 0 - - -;
#X obj 100 399 expr $f1<<8;
#X obj -32 365 & 127;
#X obj -33 202 moses 128;
#X floatatom 63 264 5 0 0 0 - - -;
#X floatatom -96 417 5 0 0 0 - - -;
#N canvas 345 771 450 300 ofmap 0;
#X obj 33 53 inlet val;
#X obj 287 53 inlet minOut;
#X obj 371 56 inlet maxOt;
#X obj 103 55 inlet minIn;
#X obj 199 55 inlet maxIn;
#X obj 41 114 expr (($f1 - $f2) / ($f3 - $f2) * ($f5 - $f4) + $f4)
;
#X obj 39 170 outlet;
#X connect 0 0 5 0;
#X connect 1 0 5 3;
#X connect 2 0 5 4;
#X connect 3 0 5 1;
#X connect 4 0 5 2;
#X connect 5 0 6 0;
#X restore -128 489 pd ofmap;
#X msg -207 451 0;
#X msg -172 450 127;
#X msg -109 451 0;
#X msg -141 450 127;
#X obj -197 401 loadbang;
#X obj -183 416 bng 15 250 50 0 empty empty empty 17 7 0 10 -262144
-1 -1;
#X connect 0 0 4 0;
#X connect 1 0 3 0;
#X connect 3 0 7 0;
#X connect 4 0 5 0;
#X connect 4 1 1 0;
#X connect 5 0 14 0;
#X connect 5 0 17 0;
#X connect 7 0 8 1;
#X connect 7 0 13 1;
#X connect 8 0 9 0;
#X connect 8 0 11 0;
#X connect 10 0 13 0;
#X connect 11 0 2 0;
#X connect 11 0 6 0;
#X connect 12 0 11 0;
#X connect 13 0 12 0;
#X connect 15 0 8 0;
#X connect 16 0 19 0;
#X connect 16 0 20 0;
#X connect 17 0 15 0;
#X connect 17 1 16 0;
#X connect 17 1 18 0;
#X connect 20 0 10 0;
#X connect 21 0 20 1;
#X connect 22 0 20 2;
#X connect 23 0 20 4;
#X connect 24 0 20 3;
#X connect 25 0 26 0;
#X connect 26 0 21 0;
#X connect 26 0 22 0;
#X connect 26 0 24 0;
#X connect 26 0 23 0;
#X restore -13051 283 pd shiftResist2byteL;
#N canvas 104 294 629 841 shiftResist2byteR 0;
#X obj -35 43 inlet;
#X obj 118 94 + 1;
#X obj 103 737 outlet;
#X obj -34 70 t f f;
#X floatatom 156 735 15 0 0 0 - - -;
#X floatatom 205 164 5 0 0 0 - - -;
#X obj 193 442 |;
#X floatatom 255 495 5 0 0 0 - - -;
#X obj -33 512 expr $f1<<8;
#X obj 91 602 / 32768;
#X obj -34 575 * -1;
#X obj -34 543 |;
#X floatatom -120 149 5 0 0 0 - - -;
#X obj 100 399 expr $f1<<8;
#X obj -32 365 & 127;
#X obj -33 202 moses 128;
#X floatatom 63 264 5 0 0 0 - - -;
#X floatatom -96 417 5 0 0 0 - - -;
#N canvas 345 771 450 300 ofmap 0;
#X obj 33 53 inlet val;
#X obj 287 53 inlet minOut;
#X obj 371 56 inlet maxOt;
#X obj 103 55 inlet minIn;
#X obj 199 55 inlet maxIn;
#X obj 41 114 expr (($f1 - $f2) / ($f3 - $f2) * ($f5 - $f4) + $f4)
;
#X obj 39 170 outlet;
#X connect 0 0 5 0;
#X connect 1 0 5 3;
#X connect 2 0 5 4;
#X connect 3 0 5 1;
#X connect 4 0 5 2;
#X connect 5 0 6 0;
#X restore -128 489 pd ofmap;
#X msg -207 451 0;
#X msg -172 450 127;
#X msg -109 451 0;
#X msg -141 450 127;
#X obj -197 401 loadbang;
#X obj -183 416 bng 15 250 50 0 empty empty empty 17 7 0 10 -262144
-1 -1;
#X obj -33 131 tabread \$0_mpuRight;
#X obj 205 130 tabread \$0_mpuRight;
#X connect 0 0 3 0;
#X connect 1 0 26 0;
#X connect 3 0 25 0;
#X connect 3 1 1 0;
#X connect 5 0 6 1;
#X connect 5 0 11 1;
#X connect 6 0 7 0;
#X connect 6 0 9 0;
#X connect 8 0 11 0;
#X connect 9 0 2 0;
#X connect 9 0 4 0;
#X connect 10 0 9 0;
#X connect 11 0 10 0;
#X connect 13 0 6 0;
#X connect 14 0 17 0;
#X connect 14 0 18 0;
#X connect 15 0 13 0;
#X connect 15 1 14 0;
#X connect 15 1 16 0;
#X connect 18 0 8 0;
#X connect 19 0 18 1;
#X connect 20 0 18 2;
#X connect 21 0 18 4;
#X connect 22 0 18 3;
#X connect 23 0 24 0;
#X connect 24 0 19 0;
#X connect 24 0 20 0;
#X connect 24 0 22 0;
#X connect 24 0 21 0;
#X connect 25 0 12 0;
#X connect 25 0 15 0;
#X connect 26 0 5 0;
#X restore -12601 272 pd shiftResist2byteR;
#N canvas 104 294 629 841 shiftResist2byteR 0;
#X obj -35 43 inlet;
#X obj 118 94 + 1;
#X obj 103 737 outlet;
#X obj -34 70 t f f;
#X floatatom 156 735 15 0 0 0 - - -;
#X floatatom 205 164 5 0 0 0 - - -;
#X obj 193 442 |;
#X floatatom 255 495 5 0 0 0 - - -;
#X obj -33 512 expr $f1<<8;
#X obj 91 602 / 32768;
#X obj -34 575 * -1;
#X obj -34 543 |;
#X floatatom -120 149 5 0 0 0 - - -;
#X obj 100 399 expr $f1<<8;
#X obj -32 365 & 127;
#X obj -33 202 moses 128;
#X floatatom 63 264 5 0 0 0 - - -;
#X floatatom -96 417 5 0 0 0 - - -;
#N canvas 345 771 450 300 ofmap 0;
#X obj 33 53 inlet val;
#X obj 287 53 inlet minOut;
#X obj 371 56 inlet maxOt;
#X obj 103 55 inlet minIn;
#X obj 199 55 inlet maxIn;
#X obj 41 114 expr (($f1 - $f2) / ($f3 - $f2) * ($f5 - $f4) + $f4)
;
#X obj 39 170 outlet;
#X connect 0 0 5 0;
#X connect 1 0 5 3;
#X connect 2 0 5 4;
#X connect 3 0 5 1;
#X connect 4 0 5 2;
#X connect 5 0 6 0;
#X restore -128 489 pd ofmap;
#X msg -207 451 0;
#X msg -172 450 127;
#X msg -109 451 0;
#X msg -141 450 127;
#X obj -197 401 loadbang;
#X obj -183 416 bng 15 250 50 0 empty empty empty 17 7 0 10 -262144
-1 -1;
#X obj -33 131 tabread \$0_mpuRight;
#X obj 205 130 tabread \$0_mpuRight;
#X connect 0 0 3 0;
#X connect 1 0 26 0;
#X connect 3 0 25 0;
#X connect 3 1 1 0;
#X connect 5 0 6 1;
#X connect 5 0 11 1;
#X connect 6 0 7 0;
#X connect 6 0 9 0;
#X connect 8 0 11 0;
#X connect 9 0 2 0;
#X connect 9 0 4 0;
#X connect 10 0 9 0;
#X connect 11 0 10 0;
#X connect 13 0 6 0;
#X connect 14 0 17 0;
#X connect 14 0 18 0;
#X connect 15 0 13 0;
#X connect 15 1 14 0;
#X connect 15 1 16 0;
#X connect 18 0 8 0;
#X connect 19 0 18 1;
#X connect 20 0 18 2;
#X connect 21 0 18 4;
#X connect 22 0 18 3;
#X connect 23 0 24 0;
#X connect 24 0 19 0;
#X connect 24 0 20 0;
#X connect 24 0 22 0;
#X connect 24 0 21 0;
#X connect 25 0 12 0;
#X connect 25 0 15 0;
#X connect 26 0 5 0;
#X restore -12436 273 pd shiftResist2byteR;
#N canvas 104 294 629 841 shiftResist2byteR 0;
#X obj -35 43 inlet;
#X obj 118 94 + 1;
#X obj 103 737 outlet;
#X obj -34 70 t f f;
#X floatatom 156 735 15 0 0 0 - - -;
#X floatatom 205 164 5 0 0 0 - - -;
#X obj 193 442 |;
#X floatatom 255 495 5 0 0 0 - - -;
#X obj -33 512 expr $f1<<8;
#X obj 91 602 / 32768;
#X obj -34 575 * -1;
#X obj -34 543 |;
#X floatatom -120 149 5 0 0 0 - - -;
#X obj 100 399 expr $f1<<8;
#X obj -32 365 & 127;
#X obj -33 202 moses 128;
#X floatatom 63 264 5 0 0 0 - - -;
#X floatatom -96 417 5 0 0 0 - - -;
#N canvas 345 771 450 300 ofmap 0;
#X obj 33 53 inlet val;
#X obj 287 53 inlet minOut;
#X obj 371 56 inlet maxOt;
#X obj 103 55 inlet minIn;
#X obj 199 55 inlet maxIn;
#X obj 41 114 expr (($f1 - $f2) / ($f3 - $f2) * ($f5 - $f4) + $f4)
;
#X obj 39 170 outlet;
#X connect 0 0 5 0;
#X connect 1 0 5 3;
#X connect 2 0 5 4;
#X connect 3 0 5 1;
#X connect 4 0 5 2;
#X connect 5 0 6 0;
#X restore -128 489 pd ofmap;
#X msg -207 451 0;
#X msg -172 450 127;
#X msg -109 451 0;
#X msg -141 450 127;
#X obj -197 401 loadbang;
#X obj -183 416 bng 15 250 50 0 empty empty empty 17 7 0 10 -262144
-1 -1;
#X obj -33 131 tabread \$0_mpuRight;
#X obj 205 130 tabread \$0_mpuRight;
#X connect 0 0 3 0;
#X connect 1 0 26 0;
#X connect 3 0 25 0;
#X connect 3 1 1 0;
#X connect 5 0 6 1;
#X connect 5 0 11 1;
#X connect 6 0 7 0;
#X connect 6 0 9 0;
#X connect 8 0 11 0;
#X connect 9 0 2 0;
#X connect 9 0 4 0;
#X connect 10 0 9 0;
#X connect 11 0 10 0;
#X connect 13 0 6 0;
#X connect 14 0 17 0;
#X connect 14 0 18 0;
#X connect 15 0 13 0;
#X connect 15 1 14 0;
#X connect 15 1 16 0;
#X connect 18 0 8 0;
#X connect 19 0 18 1;
#X connect 20 0 18 2;
#X connect 21 0 18 4;
#X connect 22 0 18 3;
#X connect 23 0 24 0;
#X connect 24 0 19 0;
#X connect 24 0 20 0;
#X connect 24 0 22 0;
#X connect 24 0 21 0;
#X connect 25 0 12 0;
#X connect 25 0 15 0;
#X connect 26 0 5 0;
#X restore -12284 269 pd shiftResist2byteR;
#N canvas 30 252 506 885 shiftResist2byteL 0;
#X obj -22 109 inlet;
#X obj 122 160 + 1;
#X obj 80 744 outlet;
#X obj 122 197 tabread \$0_mpuLeft;
#X obj -21 136 t f f;
#X obj -20 197 tabread \$0_mpuLeft;
#X floatatom 145 744 15 0 0 0 - - -;
#X floatatom 122 222 5 0 0 0 - - -;
#X obj 80 453 |;
#X floatatom 89 477 15 0 0 0 - - -;
#X floatatom -19 222 5 0 0 0 - - -;
#X obj 105 529 loadbang;
#X obj 105 549 bng 15 250 50 0 empty empty empty 17 7 0 10 -262144
-1 -1;
#X obj -19 367 expr $f1<<24;
#X obj 95 366 expr $f1<<16;
#X obj 80 611 /;
#X msg 180 155 0;
#X msg 13 161 128;
#X obj 105 588 expr 1<<30;
#X connect 0 0 4 0;
#X connect 1 0 3 0;
#X connect 3 0 7 0;
#X connect 4 0 5 0;
#X connect 4 1 1 0;
#X connect 5 0 10 0;
#X connect 7 0 14 0;
#X connect 8 0 9 0;
#X connect 8 0 15 0;
#X connect 10 0 13 0;
#X connect 11 0 12 0;
#X connect 12 0 18 0;
#X connect 13 0 8 0;
#X connect 14 0 8 1;
#X connect 15 0 2 0;
#X connect 15 0 6 0;
#X connect 16 0 7 0;
#X connect 17 0 10 0;
#X connect 18 0 15 1;
#X restore -13448 -27 pd shiftResist2byteL;
#N canvas 285 127 835 992 shiftResist2byteL 0;
#X obj -22 109 inlet;
#X obj 122 160 + 1;
#X obj 80 744 outlet;
#X obj 122 197 tabread \$0_mpuLeft;
#X obj -21 136 t f f;
#X obj -20 197 tabread \$0_mpuLeft;
#X floatatom 145 744 15 0 0 0 - - -;
#X floatatom 122 222 5 0 0 0 - - -;
#X obj 80 453 |;
#X floatatom 89 477 15 0 0 0 - - -;
#X floatatom -19 222 5 0 0 0 - - -;
#X obj 105 529 loadbang;
#X obj 105 549 bng 15 250 50 0 empty empty empty 17 7 0 10 -262144
-1 -1;
#X obj -19 367 expr $f1<<24;
#X obj 95 366 expr $f1<<16;
#X obj 80 611 /;
#X msg 180 155 0;
#X msg 13 161 128;
#X obj 105 588 expr 1<<30;
#X connect 0 0 4 0;
#X connect 1 0 3 0;
#X connect 3 0 7 0;
#X connect 4 0 5 0;
#X connect 4 1 1 0;
#X connect 5 0 10 0;
#X connect 7 0 14 0;
#X connect 8 0 9 0;
#X connect 8 0 15 0;
#X connect 10 0 13 0;
#X connect 11 0 12 0;
#X connect 12 0 18 0;
#X connect 13 0 8 0;
#X connect 14 0 8 1;
#X connect 15 0 2 0;
#X connect 15 0 6 0;
#X connect 16 0 7 0;
#X connect 17 0 10 0;
#X connect 18 0 15 1;
#X restore -13277 -29 pd shiftResist2byteL;
#N canvas 285 127 835 992 shiftResist2byteL 0;
#X obj -22 109 inlet;
#X obj 122 160 + 1;
#X obj 80 744 outlet;
#X obj 122 197 tabread \$0_mpuLeft;
#X obj -21 136 t f f;
#X obj -20 197 tabread \$0_mpuLeft;
#X floatatom 145 744 15 0 0 0 - - -;
#X floatatom 122 222 5 0 0 0 - - -;
#X obj 80 453 |;
#X floatatom 89 477 15 0 0 0 - - -;
#X floatatom -19 222 5 0 0 0 - - -;
#X obj 105 529 loadbang;
#X obj 105 549 bng 15 250 50 0 empty empty empty 17 7 0 10 -262144
-1 -1;
#X obj -19 367 expr $f1<<24;
#X obj 95 366 expr $f1<<16;
#X obj 80 611 /;
#X msg 180 155 0;
#X msg 13 161 128;
#X obj 105 588 expr 1<<30;
#X connect 0 0 4 0;
#X connect 1 0 3 0;
#X connect 3 0 7 0;
#X connect 4 0 5 0;
#X connect 4 1 1 0;
#X connect 5 0 10 0;
#X connect 7 0 14 0;
#X connect 8 0 9 0;
#X connect 8 0 15 0;
#X connect 10 0 13 0;
#X connect 11 0 12 0;
#X connect 12 0 18 0;
#X connect 13 0 8 0;
#X connect 14 0 8 1;
#X connect 15 0 2 0;
#X connect 15 0 6 0;
#X connect 16 0 7 0;
#X connect 17 0 10 0;
#X connect 18 0 15 1;
#X restore -13133 -32 pd shiftResist2byteL;
#N canvas 285 127 835 992 shiftResist2byteL 0;
#X obj -22 109 inlet;
#X obj 122 160 + 1;
#X obj 80 744 outlet;
#X obj 122 197 tabread \$0_mpuLeft;
#X obj -21 136 t f f;
#X obj -20 197 tabread \$0_mpuLeft;
#X floatatom 145 744 15 0 0 0 - - -;
#X floatatom 122 222 5 0 0 0 - - -;
#X obj 80 453 |;
#X floatatom 89 477 15 0 0 0 - - -;
#X floatatom -19 222 5 0 0 0 - - -;
#X obj 105 529 loadbang;
#X obj 105 549 bng 15 250 50 0 empty empty empty 17 7 0 10 -262144
-1 -1;
#X obj -19 367 expr $f1<<24;
#X obj 95 366 expr $f1<<16;
#X obj 80 611 /;
#X msg 180 155 0;
#X msg 13 161 128;
#X obj 105 588 expr 1<<30;
#X connect 0 0 4 0;
#X connect 1 0 3 0;
#X connect 3 0 7 0;
#X connect 4 0 5 0;
#X connect 4 1 1 0;
#X connect 5 0 10 0;
#X connect 7 0 14 0;
#X connect 8 0 9 0;
#X connect 8 0 15 0;
#X connect 10 0 13 0;
#X connect 11 0 12 0;
#X connect 12 0 18 0;
#X connect 13 0 8 0;
#X connect 14 0 8 1;
#X connect 15 0 2 0;
#X connect 15 0 6 0;
#X connect 16 0 7 0;
#X connect 17 0 10 0;
#X connect 18 0 15 1;
#X restore -12989 -26 pd shiftResist2byteL;
#N canvas 104 294 629 841 shiftResist2byteL-OLD 0;
#X obj -35 43 inlet;
#X obj 118 94 + 1;
#X obj 103 737 outlet;
#X obj 205 130 tabread \$0_mpuLeft;
#X obj -34 70 t f f;
#X obj -33 131 tabread \$0_mpuLeft;
#X floatatom 156 735 15 0 0 0 - - -;
#X floatatom 205 164 5 0 0 0 - - -;
#X obj 193 442 |;
#X floatatom 255 495 5 0 0 0 - - -;
#X obj -34 575 * -1;
#X obj -34 543 |;
#X floatatom -120 149 5 0 0 0 - - -;
#X obj -32 365 & 127;
#X obj -33 202 moses 128;
#X floatatom 63 264 5 0 0 0 - - -;
#X floatatom -96 417 5 0 0 0 - - -;
#N canvas 345 771 450 300 ofmap 0;
#X obj 33 53 inlet val;
#X obj 287 53 inlet minOut;
#X obj 371 56 inlet maxOt;
#X obj 103 55 inlet minIn;
#X obj 199 55 inlet maxIn;
#X obj 41 114 expr (($f1 - $f2) / ($f3 - $f2) * ($f5 - $f4) + $f4)
;
#X obj 39 170 outlet;
#X connect 0 0 5 0;
#X connect 1 0 5 3;
#X connect 2 0 5 4;
#X connect 3 0 5 1;
#X connect 4 0 5 2;
#X connect 5 0 6 0;
#X restore -128 489 pd ofmap;
#X msg -207 451 0;
#X msg -172 450 127;
#X msg -109 451 0;
#X msg -141 450 127;
#X obj -197 401 loadbang;
#X obj -183 416 bng 15 250 50 0 empty empty empty 17 7 0 10 -262144
-1 -1;
#X obj -33 512 expr $f1<<24;
#X obj 100 399 expr $f1<<24;
#X obj 210 386 expr $f1<<16;
#X obj 150 567 expr 1<<30;
#X obj 91 602 /;
#X connect 0 0 4 0;
#X connect 1 0 3 0;
#X connect 3 0 7 0;
#X connect 4 0 5 0;
#X connect 4 1 1 0;
#X connect 5 0 12 0;
#X connect 5 0 14 0;
#X connect 7 0 26 0;
#X connect 8 0 9 0;
#X connect 8 0 28 0;
#X connect 10 0 28 0;
#X connect 11 0 10 0;
#X connect 13 0 16 0;
#X connect 13 0 17 0;
#X connect 14 0 25 0;
#X connect 14 1 13 0;
#X connect 14 1 15 0;
#X connect 17 0 24 0;
#X connect 18 0 17 1;
#X connect 19 0 17 2;
#X connect 20 0 17 4;
#X connect 21 0 17 3;
#X connect 22 0 23 0;
#X connect 23 0 18 0;
#X connect 23 0 19 0;
#X connect 23 0 21 0;
#X connect 23 0 20 0;
#X connect 23 0 27 0;
#X connect 24 0 11 0;
#X connect 25 0 8 0;
#X connect 26 0 8 1;
#X connect 26 0 11 1;
#X connect 27 0 28 1;
#X connect 28 0 2 0;
#X connect 28 0 6 0;
#X restore -12926 -185 pd shiftResist2byteL-OLD;
#X obj -13442 81 tabwrite \$0_LEFTquat1;
#X obj -13285 81 tabwrite \$0_LEFTquat2;
#X obj -13135 81 tabwrite \$0_LEFTquat3;
#X obj -12981 80 tabwrite \$0_LEFTquat0;
#N canvas 285 127 835 992 shiftResist2byteR 0;
#X obj -22 109 inlet;
#X obj 122 160 + 1;
#X obj 80 744 outlet;
#X obj -21 136 t f f;
#X floatatom 145 744 15 0 0 0 - - -;
#X floatatom 122 222 5 0 0 0 - - -;
#X obj 80 453 |;
#X floatatom 89 477 15 0 0 0 - - -;
#X floatatom -19 222 5 0 0 0 - - -;
#X obj 105 529 loadbang;
#X obj 105 549 bng 15 250 50 0 empty empty empty 17 7 0 10 -262144
-1 -1;
#X obj -19 367 expr $f1<<24;
#X obj 95 366 expr $f1<<16;
#X obj 80 611 /;
#X msg 180 155 0;
#X msg 13 161 128;
#X obj 105 588 expr 1<<30;
#X obj -20 197 tabread \$0_mpuRight;
#X obj 122 197 tabread \$0_mpuRight;
#X connect 0 0 3 0;
#X connect 1 0 18 0;
#X connect 3 0 17 0;
#X connect 3 1 1 0;
#X connect 5 0 12 0;
#X connect 6 0 7 0;
#X connect 6 0 13 0;
#X connect 8 0 11 0;
#X connect 9 0 10 0;
#X connect 10 0 16 0;
#X connect 11 0 6 0;
#X connect 12 0 6 1;
#X connect 13 0 2 0;
#X connect 13 0 4 0;
#X connect 14 0 5 0;
#X connect 15 0 8 0;
#X connect 16 0 13 1;
#X connect 17 0 8 0;
#X connect 18 0 5 0;
#X restore -12666 -31 pd shiftResist2byteR;
#N canvas 285 127 835 992 shiftResist2byteR 0;
#X obj -22 109 inlet;
#X obj 122 160 + 1;
#X obj 80 744 outlet;
#X obj -21 136 t f f;
#X floatatom 145 744 15 0 0 0 - - -;
#X floatatom 122 222 5 0 0 0 - - -;
#X obj 80 453 |;
#X floatatom 89 477 15 0 0 0 - - -;
#X floatatom -19 222 5 0 0 0 - - -;
#X obj 105 529 loadbang;
#X obj 105 549 bng 15 250 50 0 empty empty empty 17 7 0 10 -262144
-1 -1;
#X obj -19 367 expr $f1<<24;
#X obj 95 366 expr $f1<<16;
#X obj 80 611 /;
#X msg 180 155 0;
#X msg 13 161 128;
#X obj 105 588 expr 1<<30;
#X obj -20 197 tabread \$0_mpuRight;
#X obj 122 197 tabread \$0_mpuRight;
#X connect 0 0 3 0;
#X connect 1 0 18 0;
#X connect 3 0 17 0;
#X connect 3 1 1 0;
#X connect 5 0 12 0;
#X connect 6 0 7 0;
#X connect 6 0 13 0;
#X connect 8 0 11 0;
#X connect 9 0 10 0;
#X connect 10 0 16 0;
#X connect 11 0 6 0;
#X connect 12 0 6 1;
#X connect 13 0 2 0;
#X connect 13 0 4 0;
#X connect 14 0 5 0;
#X connect 15 0 8 0;
#X connect 16 0 13 1;
#X connect 17 0 8 0;
#X connect 18 0 5 0;
#X restore -12506 -30 pd shiftResist2byteR;
#N canvas 285 127 835 992 shiftResist2byteR 0;
#X obj -22 109 inlet;
#X obj 122 160 + 1;
#X obj 80 744 outlet;
#X obj -21 136 t f f;
#X floatatom 145 744 15 0 0 0 - - -;
#X floatatom 122 222 5 0 0 0 - - -;
#X obj 80 453 |;
#X floatatom 89 477 15 0 0 0 - - -;
#X floatatom -19 222 5 0 0 0 - - -;
#X obj 105 529 loadbang;
#X obj 105 549 bng 15 250 50 0 empty empty empty 17 7 0 10 -262144
-1 -1;
#X obj -19 367 expr $f1<<24;
#X obj 95 366 expr $f1<<16;
#X obj 80 611 /;
#X msg 180 155 0;
#X msg 13 161 128;
#X obj 105 588 expr 1<<30;
#X obj -20 197 tabread \$0_mpuRight;
#X obj 122 197 tabread \$0_mpuRight;
#X connect 0 0 3 0;
#X connect 1 0 18 0;
#X connect 3 0 17 0;
#X connect 3 1 1 0;
#X connect 5 0 12 0;
#X connect 6 0 7 0;
#X connect 6 0 13 0;
#X connect 8 0 11 0;
#X connect 9 0 10 0;
#X connect 10 0 16 0;
#X connect 11 0 6 0;
#X connect 12 0 6 1;
#X connect 13 0 2 0;
#X connect 13 0 4 0;
#X connect 14 0 5 0;
#X connect 15 0 8 0;
#X connect 16 0 13 1;
#X connect 17 0 8 0;
#X connect 18 0 5 0;
#X restore -12358 -28 pd shiftResist2byteR;
#N canvas 285 127 835 992 shiftResist2byteR 0;
#X obj -22 109 inlet;
#X obj 122 160 + 1;
#X obj 80 744 outlet;
#X obj -21 136 t f f;
#X floatatom 145 744 15 0 0 0 - - -;
#X floatatom 122 222 5 0 0 0 - - -;
#X obj 80 453 |;
#X floatatom 89 477 15 0 0 0 - - -;
#X floatatom -19 222 5 0 0 0 - - -;
#X obj 105 529 loadbang;
#X obj 105 549 bng 15 250 50 0 empty empty empty 17 7 0 10 -262144
-1 -1;
#X obj -19 367 expr $f1<<24;
#X obj 95 366 expr $f1<<16;
#X obj 80 611 /;
#X msg 180 155 0;
#X msg 13 161 128;
#X obj 105 588 expr 1<<30;
#X obj -20 197 tabread \$0_mpuRight;
#X obj 122 197 tabread \$0_mpuRight;
#X connect 0 0 3 0;
#X connect 1 0 18 0;
#X connect 3 0 17 0;
#X connect 3 1 1 0;
#X connect 5 0 12 0;
#X connect 6 0 7 0;
#X connect 6 0 13 0;
#X connect 8 0 11 0;
#X connect 9 0 10 0;
#X connect 10 0 16 0;
#X connect 11 0 6 0;
#X connect 12 0 6 1;
#X connect 13 0 2 0;
#X connect 13 0 4 0;
#X connect 14 0 5 0;
#X connect 15 0 8 0;
#X connect 16 0 13 1;
#X connect 17 0 8 0;
#X connect 18 0 5 0;
#X restore -12211 -36 pd shiftResist2byteR;
#X connect 2 0 183 0;
#X connect 3 0 184 0;
#X connect 4 0 185 0;
#X connect 5 0 186 0;
#X connect 6 0 177 0;
#X connect 7 0 178 0;
#X connect 8 0 179 0;
#X connect 11 0 44 0;
#X connect 12 0 45 0;
#X connect 13 0 46 0;
#X connect 15 0 41 0;
#X connect 16 0 42 0;
#X connect 17 0 43 0;
#X connect 19 0 188 0;
#X connect 19 1 20 0;
#X connect 20 0 188 1;
#X connect 21 0 189 0;
#X connect 21 1 22 0;
#X connect 22 0 189 1;
#X connect 23 0 190 0;
#X connect 23 1 24 0;
#X connect 24 0 190 1;
#X connect 25 0 191 0;
#X connect 25 1 26 0;
#X connect 26 0 191 1;
#X connect 28 0 2 0;
#X connect 29 0 3 0;
#X connect 30 0 4 0;
#X connect 31 0 5 0;
#X connect 32 0 6 0;
#X connect 33 0 7 0;
#X connect 34 0 8 0;
#X connect 35 0 17 0;
#X connect 36 0 16 0;
#X connect 37 0 15 0;
#X connect 38 0 11 0;
#X connect 39 0 12 0;
#X connect 40 0 13 0;
#X connect 41 0 77 0;
#X connect 41 0 158 0;
#X connect 42 0 79 0;
#X connect 42 0 159 0;
#X connect 43 0 81 0;
#X connect 43 0 160 0;
#X connect 44 0 86 0;
#X connect 44 0 161 0;
#X connect 45 0 88 0;
#X connect 45 0 162 0;
#X connect 46 0 90 0;
#X connect 46 0 163 0;
#X connect 47 0 192 0;
#X connect 48 0 193 0;
#X connect 49 0 194 0;
#X connect 50 0 195 0;
#X connect 52 0 64 0;
#X connect 52 1 53 0;
#X connect 53 0 64 1;
#X connect 54 0 65 0;
#X connect 54 1 55 0;
#X connect 55 0 65 1;
#X connect 56 0 66 0;
#X connect 56 1 57 0;
#X connect 57 0 66 1;
#X connect 58 0 67 0;
#X connect 58 1 59 0;
#X connect 59 0 67 1;
#X connect 60 0 47 0;
#X connect 61 0 48 0;
#X connect 62 0 49 0;
#X connect 63 0 50 0;
#X connect 68 0 74 0;
#X connect 68 1 69 0;
#X connect 69 0 74 1;
#X connect 70 0 75 0;
#X connect 70 1 71 0;
#X connect 71 0 75 1;
#X connect 72 0 76 0;
#X connect 72 1 73 0;
#X connect 73 0 76 1;
#X connect 77 0 83 0;
#X connect 77 1 78 0;
#X connect 78 0 83 1;
#X connect 79 0 84 0;
#X connect 79 1 80 0;
#X connect 80 0 84 1;
#X connect 81 0 85 0;
#X connect 81 1 82 0;
#X connect 82 0 85 1;
#X connect 86 0 92 0;
#X connect 86 1 87 0;
#X connect 87 0 92 1;
#X connect 88 0 93 0;
#X connect 88 1 89 0;
#X connect 89 0 93 1;
#X connect 90 0 94 0;
#X connect 90 1 91 0;
#X connect 91 0 94 1;
#X connect 96 0 143 0;
#X connect 97 0 144 0;
#X connect 98 0 145 0;
#X connect 99 0 134 0;
#X connect 99 1 100 0;
#X connect 100 0 134 1;
#X connect 101 0 135 0;
#X connect 101 1 102 0;
#X connect 102 0 135 1;
#X connect 103 0 136 0;
#X connect 103 1 104 0;
#X connect 104 0 136 1;
#X connect 105 0 180 0;
#X connect 106 0 181 0;
#X connect 107 0 182 0;
#X connect 109 0 128 0;
#X connect 109 1 110 0;
#X connect 110 0 128 1;
#X connect 111 0 129 0;
#X connect 111 1 112 0;
#X connect 112 0 129 1;
#X connect 113 0 130 0;
#X connect 113 1 114 0;
#X connect 114 0 130 1;
#X connect 116 0 146 0;
#X connect 117 0 147 0;
#X connect 118 0 148 0;
#X connect 119 0 140 0;
#X connect 119 1 120 0;
#X connect 120 0 140 1;
#X connect 121 0 141 0;
#X connect 121 1 122 0;
#X connect 122 0 141 1;
#X connect 123 0 142 0;
#X connect 123 1 124 0;
#X connect 124 0 142 1;
#X connect 125 0 105 0;
#X connect 126 0 106 0;
#X connect 127 0 107 0;
#X connect 131 0 96 0;
#X connect 132 0 97 0;
#X connect 133 0 98 0;
#X connect 137 0 116 0;
#X connect 138 0 117 0;
#X connect 139 0 118 0;
#X connect 143 0 99 0;
#X connect 143 0 171 0;
#X connect 144 0 101 0;
#X connect 144 0 172 0;
#X connect 145 0 103 0;
#X connect 145 0 173 0;
#X connect 146 0 119 0;
#X connect 146 0 174 0;
#X connect 147 0 121 0;
#X connect 147 0 175 0;
#X connect 148 0 123 0;
#X connect 148 0 176 0;
#X connect 177 0 151 0;
#X connect 177 0 68 0;
#X connect 178 0 152 0;
#X connect 178 0 70 0;
#X connect 179 0 153 0;
#X connect 179 0 72 0;
#X connect 180 0 109 0;
#X connect 180 0 168 0;
#X connect 181 0 111 0;
#X connect 181 0 169 0;
#X connect 182 0 170 0;
#X connect 182 0 113 0;
#X connect 183 0 19 0;
#X connect 183 0 156 0;
#X connect 184 0 21 0;
#X connect 184 0 157 0;
#X connect 185 0 23 0;
#X connect 185 0 154 0;
#X connect 186 0 25 0;
#X connect 186 0 155 0;
#X connect 192 0 164 0;
#X connect 192 0 52 0;
#X connect 193 0 54 0;
#X connect 193 0 165 0;
#X connect 194 0 56 0;
#X connect 194 0 166 0;
#X connect 195 0 58 0;
#X connect 195 0 167 0;
#X coords 0 700 1 699 85 60 0;
#X restore 849 519 pd receiveSerialMessages;
#X text 844 410 ***trigger of 9axis sensor data***;
#X text 846 493 ***detail of 9 axis motion sensor***;
#X obj 1317 78 median_interval;
#X obj 1200 57 t f f f;
#X floatatom 1317 114 5 0 0 0 - - -;
#X floatatom 1379 117 5 0 0 0 - - -;
#X obj 1364 148 + 0.1;
#X obj 1309 145 - 0.1;
#X obj 1147 225 delaybang;
#X obj 1309 301 select 1;
#X obj 1280 337 bng 15 250 50 0 empty empty empty 17 7 0 10 -262144
-1 -1;
#X obj 1396 323 bng 15 250 50 0 empty empty empty 17 7 0 10 -262144
-1 -1;
#X obj 1309 249 counter 0;
#X obj 1309 277 mod 2;
#X obj 1158 308 select 1;
#X obj 1128 348 bng 15 250 50 0 empty empty empty 17 7 0 10 -262144
-1 -1;
#X obj 1245 330 bng 15 250 50 0 empty empty empty 17 7 0 10 -262144
-1 -1;
#X obj 1158 256 counter 0;
#X obj 1158 284 mod 2;
#X obj 1311 325 t b;
#X obj 1351 326 t b;
#X obj 1200 333 t b;
#X obj 1160 332 t b;
#X obj 863 669 trigger_map;
#X obj 1033 669 trigger_map_scratch;
#X obj 1109 772 spigot;
#X msg 1128 745 1;
#X msg 1170 745 0;
#X obj 1019 766 s scratchPosR;
#X obj 1098 807 s startScratchR;
#X obj 1175 697 r PauseR;
#X obj 1123 696 r PlayR;
#X obj 1151 359 s PlayR;
#X obj 1202 360 s PauseR;
#X obj 1304 352 s RevR;
#X obj 1355 353 s FwR;
#X obj 1560 696 tgl 15 0 empty empty empty 17 7 0 10 -262144 -1 -1
0 1;
#X text 1523 740 Scratch;
#X obj 1500 720 hsl 128 15 0 1 0 0 empty empty empty -2 -8 0 10 -262144
-1 -1 0 1;
#X obj 1573 769 spigot;
#X msg 1592 742 1;
#X msg 1634 742 0;
#X obj 1497 637 r LAccY;
#X obj 1561 635 r LMagZ;
#X obj 1587 693 r PlayL;
#X obj 1639 694 r PauseL;
#X obj 1562 804 s startScratchL;
#X obj 1483 763 s scratchPosL;
#X obj 1514 123 -;
#X floatatom 1467 157 5 0 0 0 - - -;
#X obj 1516 154 t f f;
#X obj 1455 202 moses -0.4;
#X obj 1566 199 moses 0.5;
#X obj 1617 228 delaybang;
#X obj 1625 82 median_interval;
#X obj 1508 61 t f f f;
#X floatatom 1625 118 5 0 0 0 - - -;
#X floatatom 1687 121 5 0 0 0 - - -;
#X obj 1672 152 + 0.1;
#X obj 1617 149 - 0.1;
#X obj 1455 229 delaybang;
#X obj 1617 305 select 1;
#X obj 1587 345 bng 15 250 50 0 empty empty empty 17 7 0 10 -262144
-1 -1;
#X obj 1704 327 bng 15 250 50 0 empty empty empty 17 7 0 10 -262144
-1 -1;
#X obj 1617 253 counter 0;
#X obj 1617 281 mod 2;
#X obj 1466 312 select 1;
#X obj 1436 352 bng 15 250 50 0 empty empty empty 17 7 0 10 -262144
-1 -1;
#X obj 1553 334 bng 15 250 50 0 empty empty empty 17 7 0 10 -262144
-1 -1;
#X obj 1466 260 counter 0;
#X obj 1466 288 mod 2;
#X obj 1619 329 t b;
#X obj 1659 330 t b;
#X obj 1508 337 t b;
#X obj 1468 336 t b;
#X obj 1461 364 s PlayL;
#X obj 1512 365 s PauseL;
#X obj 1618 356 s RevL;
#X obj 1669 357 s FwL;
#X obj 1211 180 spigot;
#X obj 1251 151 r cbr;
#X obj 1308 175 spigot;
#X obj 1359 177 r cbr;
#X obj 1515 180 spigot;
#X obj 1558 152 r cbr;
#X obj 1617 174 spigot;
#X obj 1668 176 r cbr;
#X obj 1276 528 spigot;
#X obj 1310 492 r cbr;
#X obj 857 384 r sensorData;
#X obj 1200 34 r RQuat;
#X obj 1152 634 r RQuat;
#X obj 1312 633 r RQuat2;
#X obj 1313 666 t f f;
#X obj 1287 829 s RQuat;
#X obj 1340 704 * 2;
#X obj 1308 738 switch 2;
#X obj 1241 667 moses 0.5;
#X obj 1241 641 r Rquats;
#X msg 1243 696 1;
#X msg 1281 697 2;
#X obj 1247 737 loadbang;
#X obj 1781 672 t f f;
#X obj 1808 710 * 2;
#X obj 1775 743 switch 2;
#X obj 1709 673 moses 0.5;
#X msg 1711 702 1;
#X msg 1749 703 2;
#X obj 1715 743 loadbang;
#X obj 1708 647 r Lquats;
#X obj 1755 838 s LQuat;
#X obj 1616 631 r LQuat;
#X obj 1508 37 r LQuat;
#X obj 1497 666 trigger_map_scratch;
#X obj 1671 555 s Lquati;
#X obj 1382 636 r Rquati;
#X obj 1382 664 moses 0.5;
#X msg 1384 693 1;
#X msg 1422 694 2;
#X obj 1388 734 loadbang;
#X obj 1287 804 switch 2;
#X obj 1307 766 t f f;
#X obj 1348 785 * -1;
#X obj 1841 668 moses 0.5;
#X msg 1843 697 1;
#X msg 1881 698 2;
#X obj 1847 738 loadbang;
#X obj 1756 813 switch 2;
#X obj 1776 775 t f f;
#X obj 1817 794 * -1;
#X obj 1841 640 r Lquati;
#X obj 1521 95 delay 150;
#X obj 1213 91 delay 150;
#X obj 1090 635 r RGyroX;
#X obj 1780 639 r LGyroX;
#X connect 31 0 37 0;
#X connect 34 0 37 0;
#X connect 37 0 36 0;
#X connect 38 0 118 0;
#X connect 40 0 65 0;
#X connect 43 0 71 0;
#X connect 44 0 81 0;
#X connect 45 0 83 0;
#X connect 46 0 85 0;
#X connect 47 0 106 0;
#X connect 48 0 108 0;
#X connect 49 0 110 0;
#X connect 50 0 112 0;
#X connect 51 0 114 0;
#X connect 52 0 116 0;
#X connect 53 0 73 0;
#X connect 54 0 75 0;
#X connect 55 0 77 0;
#X connect 56 0 79 0;
#X connect 57 0 87 0;
#X connect 58 0 89 0;
#X connect 59 0 94 0;
#X connect 60 0 96 0;
#X connect 61 0 98 0;
#X connect 62 0 100 0;
#X connect 63 0 102 0;
#X connect 64 0 104 0;
#X connect 65 0 66 0;
#X connect 67 0 68 0;
#X connect 69 0 70 0;
#X connect 71 0 72 0;
#X connect 73 0 74 0;
#X connect 75 0 76 0;
#X connect 77 0 78 0;
#X connect 79 0 80 0;
#X connect 81 0 82 0;
#X connect 83 0 84 0;
#X connect 85 0 86 0;
#X connect 87 0 88 0;
#X connect 89 0 90 0;
#X connect 91 0 92 0;
#X connect 93 0 91 0;
#X connect 94 0 95 0;
#X connect 96 0 97 0;
#X connect 98 0 99 0;
#X connect 100 0 101 0;
#X connect 102 0 103 0;
#X connect 104 0 105 0;
#X connect 106 0 107 0;
#X connect 108 0 109 0;
#X connect 110 0 111 0;
#X connect 112 0 113 0;
#X connect 114 0 115 0;
#X connect 116 0 117 0;
#X connect 118 0 37 0;
#X connect 119 0 121 0;
#X connect 119 1 120 0;
#X connect 122 0 124 0;
#X connect 122 0 123 0;
#X connect 124 0 126 0;
#X connect 124 1 127 0;
#X connect 125 0 136 0;
#X connect 126 0 154 0;
#X connect 127 1 141 0;
#X connect 128 0 170 0;
#X connect 129 0 171 0;
#X connect 131 0 174 0;
#X connect 134 0 169 0;
#X connect 135 0 137 0;
#X connect 135 1 137 1;
#X connect 136 0 119 0;
#X connect 136 1 135 0;
#X connect 137 0 138 0;
#X connect 138 0 233 0;
#X connect 140 0 169 1;
#X connect 141 0 158 0;
#X connect 144 0 143 0;
#X connect 148 0 150 0;
#X connect 148 1 151 0;
#X connect 149 0 278 0;
#X connect 149 1 122 1;
#X connect 149 2 148 0;
#X connect 150 0 153 0;
#X connect 151 0 152 0;
#X connect 152 0 225 0;
#X connect 153 0 227 0;
#X connect 154 0 163 0;
#X connect 155 0 156 0;
#X connect 155 0 165 0;
#X connect 155 1 157 0;
#X connect 155 1 166 0;
#X connect 158 0 159 0;
#X connect 159 0 155 0;
#X connect 160 0 161 0;
#X connect 160 0 168 0;
#X connect 160 1 162 0;
#X connect 160 1 167 0;
#X connect 163 0 164 0;
#X connect 164 0 160 0;
#X connect 165 0 180 0;
#X connect 166 0 181 0;
#X connect 167 0 179 0;
#X connect 168 0 178 0;
#X connect 169 0 133 0;
#X connect 169 1 132 0;
#X connect 170 0 131 0;
#X connect 170 1 129 0;
#X connect 171 0 175 0;
#X connect 172 0 171 1;
#X connect 173 0 171 1;
#X connect 176 0 173 0;
#X connect 177 0 172 0;
#X connect 182 0 185 0;
#X connect 184 0 193 0;
#X connect 185 0 192 0;
#X connect 186 0 185 1;
#X connect 187 0 185 1;
#X connect 188 0 259 0;
#X connect 189 0 259 1;
#X connect 190 0 186 0;
#X connect 191 0 187 0;
#X connect 194 0 196 0;
#X connect 194 0 195 0;
#X connect 196 0 197 0;
#X connect 196 1 198 0;
#X connect 197 0 206 0;
#X connect 198 1 199 0;
#X connect 199 0 210 0;
#X connect 200 0 202 0;
#X connect 200 1 203 0;
#X connect 201 0 277 0;
#X connect 201 1 194 1;
#X connect 201 2 200 0;
#X connect 202 0 205 0;
#X connect 203 0 204 0;
#X connect 204 0 229 0;
#X connect 205 0 231 0;
#X connect 206 0 215 0;
#X connect 207 0 208 0;
#X connect 207 0 217 0;
#X connect 207 1 209 0;
#X connect 207 1 218 0;
#X connect 210 0 211 0;
#X connect 211 0 207 0;
#X connect 212 0 213 0;
#X connect 212 0 220 0;
#X connect 212 1 214 0;
#X connect 212 1 219 0;
#X connect 215 0 216 0;
#X connect 216 0 212 0;
#X connect 217 0 223 0;
#X connect 218 0 224 0;
#X connect 219 0 222 0;
#X connect 220 0 221 0;
#X connect 225 0 126 1;
#X connect 226 0 225 1;
#X connect 227 0 127 1;
#X connect 228 0 227 1;
#X connect 229 0 197 1;
#X connect 230 0 229 1;
#X connect 231 0 198 1;
#X connect 232 0 231 1;
#X connect 233 0 119 1;
#X connect 234 0 233 1;
#X connect 235 0 144 0;
#X connect 236 0 149 0;
#X connect 237 0 170 2;
#X connect 238 0 239 0;
#X connect 239 0 242 1;
#X connect 239 1 241 0;
#X connect 241 0 242 2;
#X connect 242 0 267 0;
#X connect 243 0 245 0;
#X connect 243 1 246 0;
#X connect 244 0 243 0;
#X connect 245 0 242 0;
#X connect 246 0 242 0;
#X connect 247 0 245 0;
#X connect 248 0 250 1;
#X connect 248 1 249 0;
#X connect 249 0 250 2;
#X connect 250 0 274 0;
#X connect 251 0 252 0;
#X connect 251 1 253 0;
#X connect 252 0 250 0;
#X connect 253 0 250 0;
#X connect 254 0 252 0;
#X connect 255 0 251 0;
#X connect 257 0 259 2;
#X connect 258 0 201 0;
#X connect 259 0 184 0;
#X connect 259 1 182 0;
#X connect 261 0 262 0;
#X connect 262 0 263 0;
#X connect 262 1 264 0;
#X connect 263 0 266 0;
#X connect 264 0 266 0;
#X connect 265 0 263 0;
#X connect 266 0 240 0;
#X connect 267 0 266 1;
#X connect 267 1 268 0;
#X connect 268 0 266 2;
#X connect 269 0 270 0;
#X connect 269 1 271 0;
#X connect 270 0 273 0;
#X connect 271 0 273 0;
#X connect 272 0 270 0;
#X connect 273 0 256 0;
#X connect 274 0 273 1;
#X connect 274 1 275 0;
#X connect 275 0 273 2;
#X connect 276 0 269 0;
#X connect 277 0 194 0;
#X connect 278 0 122 0;
#X connect 279 0 170 1;
#X connect 280 0 248 0;
