#N canvas 271 160 780 652 10;
#X obj 57 21 bng 15 250 50 0 empty empty empty 17 7 0 10 -262144 -1
-1;
#X obj 56 53 openpanel;
#X obj 57 113 soundfiler;
#X floatatom 62 146 5 0 0 0 - - -;
#X obj 56 222 expr 44100/$f1;
#X floatatom 73 256 5 0 0 0 - - -;
#X obj 56 376 phasor~;
#X obj 71 319 loadbang;
#X msg 71 343 0;
#X msg 172 242 0;
#X obj 193 219 sel 1;
#X obj 212 267 f;
#X obj 214 242 t b;
#X obj 132 319 bng 15 250 50 0 empty empty empty 17 7 0 10 -262144
-1 -1;
#X obj 132 347 f;
#X obj 208 422 loadbang;
#X obj 207 444 metro 50;
#X obj 215 472 snapshot~;
#X floatatom 218 498 5 0 0 0 - - -;
#X obj 230 536 /;
#X obj 269 416 tgl 15 0 empty empty empty 17 7 0 10 -262144 -1 -1 0
1;
#X msg 176 176 1;
#X obj 244 240 t f f f;
#X obj 258 267 * -1;
#X obj 259 292 f;
#X obj 56 422 *~;
#X obj 54 572 outlet~;
#N canvas 0 22 450 278 (subpatch) 0;
#X array sample2 1.24536e+06 float 2;
#X coords 0 1 1.24536e+06 -1 200 140 1 0 0;
#X restore 369 482 graph;
#X obj 230 564 s \$0-phasorPlace;
#X obj 256 498 r \$0-sampleSize;
#X obj 84 448 r~ \$0-scratchIT;
#X obj 92 402 r \$0-sampleSize;
#X obj 183 348 r \$0-phasorPlace;
#X obj 159 317 r \$0-phasorRate;
#X obj 73 284 s \$0-phasorRate;
#X obj 237 219 r \$0-phasorRate;
#X obj 207 175 r \$0-green;
#X obj 72 176 s \$0-sampleSize;
#X obj 160 130 r \$0-Play;
#X obj 240 129 r \$0-Pause;
#X obj 272 154 r \$0-Rev;
#X obj 99 22 s \$0-Play;
#X obj 169 22 s \$0-Pause;
#X obj 252 24 s \$0-Rev;
#X obj 367 318 tgl 15 0 empty empty empty 17 7 0 10 -262144 -1 -1 1
1;
#X obj 368 297 r \$0-startScratch;
#X obj 366 343 s \$0-green;
#X obj 379 24 s \$0-startScratch;
#X obj 375 402 hsl 128 15 0 1 0 0 empty empty empty -2 -8 0 10 -262144
-1 -1 37 1;
#X obj 372 379 r \$0-scratchPos;
#X obj 370 428 s \$0-platter;
#X obj 292 292 f;
#X obj 317 131 r \$0-Fw;
#X obj 317 24 s \$0-Fw;
#X obj 605 111 tgl 15 0 empty empty empty 17 7 0 10 -262144 -1 -1 1
1;
#X obj 523 144 spigot;
#X obj 526 170 hsl 128 15 0 1 0 0 empty empty empty -2 -8 0 10 -262144
-1 -1 37 1;
#X obj 523 195 change;
#X obj 578 240 * 40000;
#X obj 523 242 *;
#X obj 523 275 i;
#X obj 523 308 nbx 5 14 -1e+37 1e+37 0 0 empty empty empty 0 -8 0 10
-262144 -1 -1 8 256;
#X obj 523 376 line~;
#X obj 578 265 nbx 5 14 -1e+37 1e+37 0 0 empty empty empty 0 -8 0 10
-262144 -1 -1 2800 256;
#X msg 523 341 \$1 100;
#X obj 655 353 t f f;
#X obj 650 450 -;
#X obj 638 387 spigot;
#X obj 640 471 moses 0;
#X obj 632 495 i;
#X obj 523 85 r \$0-platter;
#X obj 606 85 r \$0-green;
#X obj 578 208 r \$0-FXdial;
#X obj 634 296 r \$0-green;
#X obj 655 330 r \$0-phasorPlace;
#X obj 604 521 s \$0-phasorPlace;
#X obj 367 227 hsl 128 15 0 1 0 0 empty empty empty -2 -8 0 10 -262144
-1 -1 889 1;
#X obj 364 174 loadbang;
#X obj 364 251 s \$0-FXdial;
#X obj 500 24 s \$0-scratchPos;
#X obj 56 -6 inlet;
#X obj 99 -8 inlet;
#X obj 168 -7 inlet;
#X obj 523 405 s~ \$0-scratchIT;
#X obj 251 -6 inlet;
#X obj 319 -6 inlet;
#X obj 379 -5 inlet;
#X obj 498 -6 inlet;
#X msg 56 82 read -resize \$1 sample2;
#X obj 56 479 tabread4~ sample2;
#X obj 100 144 t f b;
#X msg 364 197 0.07;
#X connect 0 0 1 0;
#X connect 1 0 88 0;
#X connect 2 0 3 0;
#X connect 2 0 4 0;
#X connect 2 0 90 0;
#X connect 4 0 5 0;
#X connect 4 0 6 0;
#X connect 5 0 34 0;
#X connect 6 0 25 0;
#X connect 7 0 8 0;
#X connect 8 0 6 0;
#X connect 9 0 6 0;
#X connect 10 0 9 0;
#X connect 10 1 12 0;
#X connect 11 0 6 0;
#X connect 12 0 11 0;
#X connect 13 0 14 0;
#X connect 14 0 6 0;
#X connect 15 0 16 0;
#X connect 16 0 17 0;
#X connect 17 0 18 0;
#X connect 18 0 19 0;
#X connect 19 0 28 0;
#X connect 20 0 16 0;
#X connect 21 0 9 0;
#X connect 22 0 11 1;
#X connect 22 1 23 0;
#X connect 22 2 51 1;
#X connect 23 0 24 1;
#X connect 24 0 6 0;
#X connect 25 0 17 0;
#X connect 25 0 89 0;
#X connect 29 0 19 1;
#X connect 30 0 89 0;
#X connect 31 0 25 1;
#X connect 32 0 6 1;
#X connect 33 0 14 1;
#X connect 35 0 22 0;
#X connect 36 0 10 0;
#X connect 38 0 9 0;
#X connect 39 0 21 0;
#X connect 40 0 24 0;
#X connect 44 0 46 0;
#X connect 45 0 44 0;
#X connect 48 0 50 0;
#X connect 49 0 48 0;
#X connect 51 0 6 0;
#X connect 52 0 51 0;
#X connect 54 0 55 1;
#X connect 55 0 56 0;
#X connect 56 0 57 0;
#X connect 57 0 59 0;
#X connect 58 0 63 0;
#X connect 59 0 60 0;
#X connect 60 0 61 0;
#X connect 61 0 64 0;
#X connect 62 0 83 0;
#X connect 63 0 59 1;
#X connect 63 0 66 1;
#X connect 64 0 62 0;
#X connect 65 0 67 0;
#X connect 66 0 68 0;
#X connect 67 0 66 0;
#X connect 68 1 69 0;
#X connect 69 0 75 0;
#X connect 70 0 55 0;
#X connect 71 0 54 0;
#X connect 72 0 58 0;
#X connect 73 0 67 1;
#X connect 74 0 65 0;
#X connect 76 0 78 0;
#X connect 77 0 91 0;
#X connect 80 0 0 0;
#X connect 81 0 41 0;
#X connect 82 0 42 0;
#X connect 84 0 43 0;
#X connect 85 0 53 0;
#X connect 86 0 47 0;
#X connect 87 0 79 0;
#X connect 88 0 2 0;
#X connect 89 0 26 0;
#X connect 90 0 37 0;
#X connect 90 1 21 0;
#X connect 91 0 76 0;
