#N canvas 533 23 480 594 10;
#X obj 25 321 hsl 128 15 0 1 0 0 empty empty empty -2 -8 0 10 -262144
-1 -1 0 1;
#X obj 23 270 * 3;
#X obj 24 294 spigot;
#X obj 93 254 tgl 15 0 empty empty empty 17 7 0 10 -262144 -1 -1 0
1;
#X obj 69 110 -;
#X obj 69 133 abs;
#X obj 68 199 t b;
#X obj 125 200 t b;
#X obj 24 455 outlet;
#X obj 90 472 outlet;
#X obj 23 27 inlet;
#X obj 70 29 inlet;
#X obj 70 55 t f f;
#X obj 70 155 t f f;
#X obj 269 29 inlet;
#X msg 273 252 0;
#X msg 313 252 1;
#X obj 269 114 -;
#X obj 269 157 abs;
#X obj 268 223 t b;
#X obj 325 224 t b;
#X obj 269 199 moses 0.65;
#X obj 329 108 median_interval;
#X obj 270 59 t f f;
#X obj 268 87 delay 100;
#X obj 65 346 spigot;
#X obj 390 224 t b;
#X obj 447 225 t b;
#X obj 391 200 moses 0;
#X obj 88 378 spigot;
#X obj 270 179 t f f;
#X obj 269 136 t f f;
#X msg 395 253 0;
#X msg 440 253 1;
#X obj 324 163 spigot;
#X obj 368 137 r cbr;
#X floatatom 352 199 5 0 0 0 - - -;
#X floatatom 31 176 5 0 0 0 - - -;
#X floatatom 230 199 5 0 0 0 - - -;
#X obj 325 138 - 0.2;
#X obj 68 83 delay 50;
#X msg 128 227 1;
#X msg 60 228 0;
#X obj 69 175 moses 0.05;
#X obj 155 293 tgl 15 0 empty empty empty 17 7 0 10 -262144 -1 -1 0
1;
#X obj 218 298 tgl 15 0 empty empty empty 17 7 0 10 -262144 -1 -1 0
1;
#X floatatom 14 354 5 0 0 0 - - -;
#X floatatom 39 394 5 0 0 0 - - -;
#X floatatom 161 412 5 0 0 0 - - -;
#X obj 148 470 tgl 15 0 empty empty empty 17 7 0 10 -262144 -1 -1 0
1;
#X obj 96 415 t f b;
#X obj 228 379 &&;
#X obj 245 408 &&;
#X connect 1 0 2 0;
#X connect 1 0 0 0;
#X connect 2 0 25 0;
#X connect 2 0 46 0;
#X connect 3 0 2 1;
#X connect 3 0 51 0;
#X connect 4 0 5 0;
#X connect 5 0 13 0;
#X connect 6 0 42 0;
#X connect 7 0 41 0;
#X connect 10 0 1 0;
#X connect 11 0 12 0;
#X connect 12 0 40 0;
#X connect 12 1 4 1;
#X connect 13 0 37 0;
#X connect 13 0 43 0;
#X connect 14 0 23 0;
#X connect 15 0 44 0;
#X connect 16 0 44 0;
#X connect 17 0 31 0;
#X connect 18 0 30 0;
#X connect 19 0 16 0;
#X connect 20 0 15 0;
#X connect 21 0 19 0;
#X connect 21 1 20 0;
#X connect 22 0 39 0;
#X connect 23 0 24 0;
#X connect 23 1 17 1;
#X connect 24 0 17 0;
#X connect 25 0 29 0;
#X connect 25 0 47 0;
#X connect 26 0 33 0;
#X connect 27 0 32 0;
#X connect 28 0 26 0;
#X connect 28 1 27 0;
#X connect 29 0 48 0;
#X connect 29 0 50 0;
#X connect 30 0 21 0;
#X connect 30 0 38 0;
#X connect 30 1 22 0;
#X connect 31 0 18 0;
#X connect 31 1 28 0;
#X connect 32 0 45 0;
#X connect 33 0 45 0;
#X connect 34 0 21 1;
#X connect 34 0 36 0;
#X connect 35 0 34 1;
#X connect 39 0 34 0;
#X connect 40 0 4 0;
#X connect 41 0 3 0;
#X connect 42 0 3 0;
#X connect 43 0 6 0;
#X connect 43 1 7 0;
#X connect 44 0 25 1;
#X connect 44 0 51 1;
#X connect 45 0 29 1;
#X connect 45 0 52 1;
#X connect 50 0 8 0;
#X connect 51 0 52 0;
#X connect 52 0 49 0;
