#N canvas 0 22 514 438 10;
#X obj 31 333 hsl 128 15 0 1 0 0 empty empty empty -2 -8 0 10 -262144
-1 -1 2101 1;
#X obj 26 306 * 3;
#X obj 26 282 spigot;
#X obj 93 254 tgl 15 0 empty empty empty 17 7 0 10 -262144 -1 -1 0
1;
#X msg 73 228 0;
#X msg 113 228 1;
#X obj 69 110 -;
#X obj 68 83 delay 200;
#X obj 69 133 abs;
#X obj 68 199 t b;
#X obj 125 200 t b;
#X obj 69 176 moses 0.65;
#X obj 34 370 outlet;
#X obj 100 372 outlet;
#X obj 23 27 inlet;
#X obj 70 29 inlet;
#X obj 124 109 median_interval;
#X obj 70 55 t f f;
#X obj 70 155 t f f;
#X obj 126 138 - 0.3;
#X obj 238 29 inlet;
#X msg 242 252 0;
#X msg 282 252 1;
#X obj 238 114 -;
#X obj 238 157 abs;
#X obj 237 223 t b;
#X obj 294 224 t b;
#X obj 238 199 moses 0.65;
#X obj 293 113 median_interval;
#X obj 239 59 t f f;
#X obj 237 87 delay 100;
#X obj 292 168 - 0.2;
#X obj 165 273 spigot;
#X obj 359 224 t b;
#X obj 416 225 t b;
#X obj 360 200 moses 0;
#X obj 236 313 spigot;
#X obj 239 179 t f f;
#X obj 238 136 t f f;
#X msg 364 253 0;
#X msg 409 253 1;
#X connect 0 0 12 0;
#X connect 1 0 0 0;
#X connect 2 0 1 0;
#X connect 3 0 32 0;
#X connect 4 0 3 0;
#X connect 5 0 3 0;
#X connect 6 0 8 0;
#X connect 7 0 6 0;
#X connect 8 0 18 0;
#X connect 9 0 5 0;
#X connect 10 0 4 0;
#X connect 11 0 9 0;
#X connect 11 1 10 0;
#X connect 14 0 2 0;
#X connect 15 0 17 0;
#X connect 16 0 19 0;
#X connect 17 0 7 0;
#X connect 17 1 6 1;
#X connect 18 0 11 0;
#X connect 18 1 16 0;
#X connect 19 0 11 1;
#X connect 20 0 29 0;
#X connect 21 0 32 1;
#X connect 22 0 32 1;
#X connect 23 0 38 0;
#X connect 24 0 37 0;
#X connect 25 0 22 0;
#X connect 26 0 21 0;
#X connect 27 0 25 0;
#X connect 27 1 26 0;
#X connect 28 0 31 0;
#X connect 29 0 30 0;
#X connect 29 1 23 1;
#X connect 30 0 23 0;
#X connect 31 0 27 1;
#X connect 32 0 36 0;
#X connect 33 0 40 0;
#X connect 34 0 39 0;
#X connect 35 0 33 0;
#X connect 35 1 34 0;
#X connect 36 0 13 0;
#X connect 37 0 27 0;
#X connect 37 1 28 0;
#X connect 38 0 24 0;
#X connect 38 1 35 0;
#X connect 39 0 36 1;
#X connect 40 0 36 1;
