#N canvas 0 22 514 438 10;
#X obj 31 333 hsl 128 15 0 1 0 0 empty empty empty -2 -8 0 10 -262144
-1 -1 0 1;
#X obj 26 306 * 3;
#X obj 196 336 spigot;
#X obj 93 254 tgl 15 0 empty empty empty 17 7 0 10 -262144 -1 -1 0
1;
#X obj 69 110 -;
#X obj 68 83 delay 200;
#X obj 69 133 abs;
#X obj 68 199 t b;
#X obj 125 200 t b;
#X obj 34 370 outlet;
#X obj 161 383 outlet;
#X obj 23 27 inlet;
#X obj 70 29 inlet;
#X obj 129 103 median_interval;
#X obj 70 55 t f f;
#X obj 70 155 t f f;
#X obj 269 29 inlet;
#X msg 273 252 0;
#X msg 313 252 1;
#X obj 269 114 -;
#X obj 269 157 abs;
#X obj 268 223 t b;
#X obj 325 224 t b;
#X obj 269 199 moses 0.65;
#X obj 329 108 median_interval;
#X obj 270 59 t f f;
#X obj 268 87 delay 100;
#X obj 325 138 - 0.2;
#X obj 165 273 spigot;
#X obj 390 224 t b;
#X obj 447 225 t b;
#X obj 391 200 moses 0;
#X obj 267 313 spigot;
#X obj 270 179 t f f;
#X obj 269 136 t f f;
#X msg 395 253 0;
#X msg 440 253 1;
#X obj 281 343 t a a;
#X obj 127 153 spigot;
#X obj 171 132 r cbr;
#X obj 324 163 spigot;
#X obj 368 137 r cbr;
#X floatatom 31 183 5 0 0 0 - - -;
#X floatatom 161 188 5 0 0 0 - - -;
#X msg 122 225 1;
#X msg 70 228 0;
#X obj 69 176 moses 0.05;
#X obj 125 132 + 0.05;
#X connect 0 0 9 0;
#X connect 1 0 0 0;
#X connect 3 0 28 0;
#X connect 4 0 6 0;
#X connect 5 0 4 0;
#X connect 6 0 15 0;
#X connect 7 0 45 0;
#X connect 8 0 44 0;
#X connect 11 0 1 0;
#X connect 12 0 14 0;
#X connect 13 1 47 0;
#X connect 14 0 5 0;
#X connect 14 1 4 1;
#X connect 15 0 42 0;
#X connect 15 0 46 0;
#X connect 15 1 13 0;
#X connect 16 0 25 0;
#X connect 17 0 28 1;
#X connect 18 0 28 1;
#X connect 19 0 34 0;
#X connect 20 0 33 0;
#X connect 21 0 18 0;
#X connect 22 0 17 0;
#X connect 23 0 21 0;
#X connect 23 1 22 0;
#X connect 24 0 27 0;
#X connect 25 0 26 0;
#X connect 25 1 19 1;
#X connect 26 0 19 0;
#X connect 27 0 40 0;
#X connect 28 0 32 0;
#X connect 29 0 36 0;
#X connect 30 0 35 0;
#X connect 31 0 29 0;
#X connect 31 1 30 0;
#X connect 32 0 37 0;
#X connect 33 0 23 0;
#X connect 33 1 24 0;
#X connect 34 0 20 0;
#X connect 34 1 31 0;
#X connect 35 0 32 1;
#X connect 36 0 32 1;
#X connect 37 0 2 1;
#X connect 37 1 10 0;
#X connect 38 0 43 0;
#X connect 38 0 46 1;
#X connect 39 0 38 1;
#X connect 40 0 23 1;
#X connect 41 0 40 1;
#X connect 44 0 3 0;
#X connect 45 0 3 0;
#X connect 46 0 7 0;
#X connect 46 1 8 0;
#X connect 47 0 38 0;
