#N canvas 0 22 513 524 10;
#X obj 69 110 -;
#X obj 69 133 abs;
#X obj 68 199 t b;
#X obj 125 200 t b;
#X obj 23 27 inlet;
#X obj 70 29 inlet;
#X obj 129 103 median_interval;
#X obj 70 55 t f f;
#X obj 70 155 t f f;
#X obj 269 29 inlet;
#X msg 336 253 0;
#X msg 274 250 1;
#X obj 269 114 -;
#X obj 269 157 abs;
#X obj 268 223 t b;
#X obj 325 224 t b;
#X obj 269 199 moses 0.65;
#X obj 329 108 median_interval;
#X obj 270 59 t f f;
#X obj 325 138 - 0.2;
#X obj 270 179 t f f;
#X obj 269 136 t f f;
#X obj 127 153 spigot;
#X obj 171 132 r cbr;
#X obj 324 163 spigot;
#X obj 368 137 r cbr;
#X floatatom 31 183 5 0 0 0 - - -;
#X floatatom 161 188 5 0 0 0 - - -;
#X msg 122 225 1;
#X msg 70 228 0;
#X obj 69 176 moses 0.05;
#X obj 36 330 hsl 128 15 0 1 0 0 empty empty empty -2 -8 0 10 -262144
-1 -1 47 1;
#X obj 34 279 * 3;
#X obj 35 303 spigot;
#X obj 104 263 tgl 15 0 empty empty empty 17 7 0 10 -262144 -1 -1 1
1;
#X obj 58 464 outlet;
#X obj 165 473 outlet;
#X obj 76 355 spigot;
#X obj 166 302 tgl 15 0 empty empty empty 17 7 0 10 -262144 -1 -1 0
1;
#X floatatom 29 363 5 0 0 0 - - -;
#X floatatom 31 398 5 0 0 0 - - -;
#X obj 161 450 tgl 15 0 empty empty empty 17 7 0 10 -262144 -1 -1 0
1;
#X obj 155 419 &&;
#X floatatom 344 203 5 0 0 0 - - -;
#X obj 267 86 delay 100;
#X obj 68 83 delay 100;
#X obj 125 132 + 0.03;
#X connect 0 0 1 0;
#X connect 1 0 8 0;
#X connect 2 0 29 0;
#X connect 3 0 28 0;
#X connect 4 0 32 0;
#X connect 5 0 7 0;
#X connect 6 1 46 0;
#X connect 7 0 45 0;
#X connect 7 1 0 1;
#X connect 8 0 26 0;
#X connect 8 0 30 0;
#X connect 8 1 6 0;
#X connect 9 0 18 0;
#X connect 10 0 38 0;
#X connect 11 0 38 0;
#X connect 12 0 21 0;
#X connect 13 0 20 0;
#X connect 14 0 11 0;
#X connect 15 0 10 0;
#X connect 16 0 14 0;
#X connect 16 1 15 0;
#X connect 17 0 19 0;
#X connect 18 0 44 0;
#X connect 18 1 12 1;
#X connect 19 0 24 0;
#X connect 20 0 16 0;
#X connect 20 1 17 0;
#X connect 21 0 13 0;
#X connect 21 1 43 0;
#X connect 22 0 27 0;
#X connect 22 0 30 1;
#X connect 23 0 22 1;
#X connect 24 0 16 1;
#X connect 25 0 24 1;
#X connect 28 0 34 0;
#X connect 29 0 34 0;
#X connect 30 0 2 0;
#X connect 30 1 3 0;
#X connect 32 0 33 0;
#X connect 32 0 31 0;
#X connect 33 0 37 0;
#X connect 33 0 39 0;
#X connect 34 0 33 1;
#X connect 34 0 42 0;
#X connect 37 0 40 0;
#X connect 37 0 35 0;
#X connect 38 0 37 1;
#X connect 38 0 42 1;
#X connect 41 0 36 0;
#X connect 42 0 41 0;
#X connect 44 0 12 0;
#X connect 45 0 0 0;
#X connect 46 0 22 0;
